<svg width="137" height="42" viewBox="0 0 137 42" fill="none" xmlns="http://www.w3.org/2000/svg">
<path d="M21.3738 42C33.1782 42 42.7476 32.598 42.7476 21C42.7476 9.40202 33.1782 0 21.3738 0C9.56937 0 0 9.40202 0 21C0 32.598 9.56937 42 21.3738 42Z" fill="#FD1015"/>
<path d="M10.0509 26.3505C10.0326 26.4726 9.92549 26.5663 9.79614 26.5663C9.79264 26.5663 9.78916 26.5662 9.78569 26.5661L9.01313 26.5663C8.87091 26.5663 8.75562 26.453 8.75562 26.3133V25.8072C8.75562 25.6675 8.87091 25.5542 9.01313 25.5542L9.01313 22.2651C9.01313 22.1253 9.12843 22.0121 9.27065 22.0121H29.1024C30.4788 22.0121 31.715 22.6018 32.5635 23.5381C32.6274 23.6087 32.7078 23.7073 32.8046 23.834C32.9019 23.9613 33.0544 24.0362 33.2164 24.0361H33.4873C33.678 24.0361 33.9328 24.0361 34.2517 24.0362C34.5353 24.037 34.765 24.2633 34.765 24.5422V26.0602C34.765 26.3397 34.5344 26.5663 34.25 26.5663H32.4473C32.4439 26.5662 32.4405 26.5663 32.437 26.5663C32.2948 26.5663 32.1795 26.453 32.1795 26.3133C32.0484 24.7548 30.7196 23.5301 29.0996 23.5301C27.4796 23.5301 26.1508 24.7548 26.02 26.3133C26.0199 26.453 25.9046 26.5663 25.7624 26.5663C25.7588 26.5663 25.7553 26.5662 25.7519 26.5661L16.4812 26.5663C16.339 26.5663 16.2237 26.453 16.2237 26.3133H16.2131C16.0822 24.7548 14.7534 23.5301 13.1334 23.5301C11.5135 23.5301 10.1846 24.7548 10.0538 26.3133C10.0537 26.3138 10.0537 26.3143 10.0537 26.3148C10.0527 26.3267 10.0517 26.3386 10.0509 26.3505ZM34.25 22.7711C34.25 22.9108 34.1347 23.0241 33.9925 23.0241H33.5876C33.514 23.0241 33.444 22.9932 33.3952 22.9393C33.2262 22.7527 33.0925 22.6136 32.9939 22.522C31.9793 21.5786 30.6096 21 29.1024 21H9.27065C9.12843 21 9.01313 20.8867 9.01313 20.747L9.01313 14.8609C9.01313 13.7255 9.86454 12.7635 11.009 12.6059C14.4666 12.1297 17.7217 11.8916 20.7743 11.8916C26.2245 11.8916 28.3436 12.3178 30.3872 13.4096C31.6316 14.0745 32.8136 15.6801 33.9332 18.2263C34.1422 18.7016 34.25 19.2138 34.25 19.7314V22.7711ZM9.01313 21.253H9.01313V21.759H9.01313L9.01313 21.253ZM10.5582 14.6747C10.416 14.6747 10.3007 14.788 10.3007 14.9277V18.7229C10.3007 18.8626 10.416 18.9759 10.5582 18.9759H14.421C14.5633 18.9759 14.6785 18.8626 14.6785 18.7229V14.9277C14.6785 14.788 14.5633 14.6747 14.421 14.6747H10.5582ZM21.374 14.6747C21.2318 14.6747 21.1165 14.788 21.1165 14.9277V18.7229C21.1165 18.8626 21.2318 18.9759 21.374 18.9759H25.2368C25.379 18.9759 25.4943 18.8626 25.4943 18.7229V14.9277C25.4943 14.788 25.379 14.6747 25.2368 14.6747H21.374ZM15.9661 14.6747C15.8239 14.6747 15.7086 14.788 15.7086 14.9277V18.7229C15.7086 18.8626 15.8239 18.9759 15.9661 18.9759H19.8289C19.9711 18.9759 20.0864 18.8626 20.0864 18.7229V14.9277C20.0864 14.788 19.9711 14.6747 19.8289 14.6747H15.9661ZM26.7819 14.6747C26.6397 14.6747 26.5244 14.788 26.5244 14.9277V18.7229C26.5244 18.8626 26.6397 18.9759 26.7819 18.9759H32.7203C32.7519 18.9759 32.7832 18.9702 32.8126 18.9591C32.9454 18.909 33.0117 18.7627 32.9607 18.6322C32.6785 17.91 32.3523 17.2457 31.9821 16.6395C31.9265 16.5483 31.8753 16.458 31.8286 16.3684C31.2868 15.3288 30.198 14.6747 29.0092 14.6747L26.7819 14.6747ZM13.1334 28.5904C11.9956 28.5904 11.0733 27.6841 11.0733 26.5663C11.0733 25.4484 11.9956 24.5422 13.1334 24.5422C14.2712 24.5422 15.1936 25.4484 15.1936 26.5663C15.1936 27.6841 14.2712 28.5904 13.1334 28.5904ZM13.1334 27.5783C13.7023 27.5783 14.1635 27.1252 14.1635 26.5663C14.1635 26.0073 13.7023 25.5542 13.1334 25.5542C12.5645 25.5542 12.1034 26.0073 12.1034 26.5663C12.1034 27.1252 12.5645 27.5783 13.1334 27.5783ZM29.0996 28.5904C27.9618 28.5904 27.0395 27.6841 27.0395 26.5663C27.0395 25.4484 27.9618 24.5422 29.0996 24.5422C30.2374 24.5422 31.1598 25.4484 31.1598 26.5663C31.1598 27.6841 30.2374 28.5904 29.0996 28.5904ZM29.0996 27.5783C29.6685 27.5783 30.1297 27.1252 30.1297 26.5663C30.1297 26.0073 29.6685 25.5542 29.0996 25.5542C28.5307 25.5542 28.0695 26.0073 28.0695 26.5663C28.0695 27.1252 28.5307 27.5783 29.0996 27.5783Z" fill="white"/>
<path d="M56.1409 20.2181H61.7392C61.2572 19.1707 60.1852 18.4419 58.94 18.4419C57.6949 18.4419 56.6228 19.1707 56.1409 20.2181ZM64.5928 22.5271C64.5303 22.6333 64.4136 22.7047 64.2799 22.7047H56.1409C56.6228 23.7521 57.6949 24.4809 58.94 24.4809C59.5376 24.4809 60.0953 24.313 60.567 24.0227C60.6721 23.958 60.8047 23.8571 60.9649 23.7199C61.0924 23.6107 61.2645 23.5663 61.4301 23.5998L63.5485 24.029C63.7439 24.0685 63.8697 24.2564 63.8295 24.4485C63.8206 24.4909 63.8039 24.5313 63.7803 24.5677C63.7587 24.6011 63.7387 24.631 63.7204 24.6575C63.1958 25.4147 62.4901 26.0407 61.6645 26.4754C60.8528 26.9028 59.9252 27.1451 58.94 27.1451C55.7477 27.1451 53.1599 24.6004 53.1599 21.4614C53.1599 18.3224 55.7477 15.7777 58.94 15.7777C62.1323 15.7777 64.7202 18.3224 64.7202 21.4614C64.7202 21.8256 64.6853 22.1819 64.6187 22.5271H64.5928ZM49.186 26.4219V11.6512C49.186 11.4765 49.3111 11.3258 49.4853 11.2907L51.4456 10.8952C51.6482 10.8543 51.8462 10.9826 51.8878 11.1816C51.8929 11.206 51.8955 11.2308 51.8955 11.2557V26.4219C51.8955 26.6251 51.7278 26.7899 51.5209 26.7899H49.5606C49.3537 26.7899 49.186 26.6251 49.186 26.4219ZM76.1103 26.7899H73.9352C73.7751 26.7899 73.6326 26.6898 73.5808 26.5409L70.1279 16.62C70.061 16.4277 70.1654 16.2185 70.3612 16.1527C70.4002 16.1396 70.4411 16.1329 70.4824 16.1329H72.4001C72.5602 16.1329 72.7027 16.2329 72.7545 16.3818L74.8456 22.3899C74.879 22.4861 74.9855 22.5374 75.0834 22.5045C75.1382 22.4861 75.1812 22.4438 75.2 22.3899L77.291 16.3818C77.3429 16.2329 77.4853 16.1329 77.6455 16.1329H79.82C79.9802 16.1329 80.1226 16.2329 80.1744 16.3818L82.2655 22.3899C82.299 22.4861 82.4054 22.5374 82.5033 22.5045C82.5581 22.4861 82.6012 22.4438 82.6199 22.3899L84.711 16.3818C84.7628 16.2329 84.9052 16.1329 85.0654 16.1329H86.9831C87.19 16.1329 87.3577 16.2977 87.3577 16.5009C87.3577 16.5414 87.3509 16.5817 87.3375 16.62L83.8847 26.5409C83.8328 26.6898 83.6904 26.7899 83.5302 26.7899H81.3552C81.195 26.7899 81.0526 26.6898 81.0008 26.5409L78.91 20.5335C78.8765 20.4374 78.77 20.3861 78.6721 20.4189C78.6173 20.4374 78.5743 20.4797 78.5555 20.5335L76.4647 26.5409C76.4129 26.6898 76.2705 26.7899 76.1103 26.7899ZM96.5109 26.1613C95.5846 26.7822 94.4652 27.1451 93.2596 27.1451C90.0673 27.1451 87.4795 24.6004 87.4795 21.4614C87.4795 18.3224 90.0673 15.7777 93.2596 15.7777C94.4652 15.7777 95.5846 16.1406 96.5109 16.7614V16.4881C96.5109 16.2919 96.6727 16.1329 96.8722 16.1329H98.8591C99.0586 16.1329 99.2204 16.2919 99.2204 16.4881V26.4346C99.2204 26.6308 99.0586 26.7899 98.8591 26.7899H96.8722C96.6727 26.7899 96.5109 26.6308 96.5109 26.4346V26.1613ZM93.4402 24.4809C95.1361 24.4809 96.5109 23.129 96.5109 21.4614C96.5109 19.7938 95.1361 18.4419 93.4402 18.4419C91.7443 18.4419 90.3695 19.7938 90.3695 21.4614C90.3695 23.129 91.7443 24.4809 93.4402 24.4809ZM109.516 16.7614V16.4881C109.516 16.2919 109.678 16.1329 109.878 16.1329H111.864C112.064 16.1329 112.226 16.2919 112.226 16.4881V26.4346H112.225C112.177 29.5818 109.567 32.1184 106.355 32.1184C105.516 32.1184 104.718 31.9453 103.996 31.6334C103.805 31.5507 103.557 31.4169 103.252 31.2322C103.036 31.1013 102.942 30.8408 103.024 30.6051L103.665 28.7765C103.73 28.591 103.936 28.4925 104.124 28.5564C104.171 28.5722 104.214 28.5975 104.251 28.6305C104.489 28.8457 104.696 28.999 104.87 29.0905C105.313 29.3226 105.818 29.4541 106.355 29.4541C108.071 29.4541 109.467 28.1102 109.515 26.4346H109.516V26.1613C108.59 26.7822 107.471 27.1451 106.265 27.1451C103.073 27.1451 100.485 24.6004 100.485 21.4614C100.485 18.3224 103.073 15.7777 106.265 15.7777C107.471 15.7777 108.59 16.1406 109.516 16.7614ZM106.446 24.4809C108.141 24.4809 109.516 23.129 109.516 21.4614C109.516 19.7938 108.141 18.4419 106.446 18.4419C104.75 18.4419 103.375 19.7938 103.375 21.4614C103.375 23.129 104.75 24.4809 106.446 24.4809ZM119.27 27.1451C116.078 27.1451 113.49 24.6004 113.49 21.4614C113.49 18.3224 116.078 15.7777 119.27 15.7777C122.463 15.7777 125.05 18.3224 125.05 21.4614C125.05 24.6004 122.463 27.1451 119.27 27.1451ZM119.27 24.4809C120.966 24.4809 122.341 23.129 122.341 21.4614C122.341 19.7938 120.966 18.4419 119.27 18.4419C117.574 18.4419 116.2 19.7938 116.2 21.4614C116.2 23.129 117.574 24.4809 119.27 24.4809ZM136.972 20.9285V26.4346C136.972 26.6308 136.81 26.7899 136.611 26.7899H134.443C134.244 26.7899 134.082 26.6308 134.082 26.4346V21.1062H134.076C134.08 21.0475 134.082 20.9883 134.082 20.9285C134.082 19.5552 132.95 18.4419 131.553 18.4419C130.156 18.4419 129.024 19.5552 129.024 20.9285C129.024 20.9883 129.026 21.0475 129.031 21.1062H129.024V26.4346C129.024 26.6308 128.862 26.7899 128.663 26.7899H126.676C126.477 26.7899 126.315 26.6308 126.315 26.4346V16.4881C126.315 16.2919 126.477 16.1329 126.676 16.1329H128.663C128.862 16.1329 129.024 16.2919 129.024 16.4881V16.5193C129.815 16.0486 130.742 15.7777 131.734 15.7777C134.627 15.7777 136.972 18.0838 136.972 20.9285Z" fill="#0E0000"/>
</svg>
