<svg width="248" height="138" viewBox="0 0 248 138" fill="none" xmlns="http://www.w3.org/2000/svg">
<path d="M244.64 21.349C218.39 -5.20915 175.829 -5.20915 149.579 21.349C123.329 47.9001 123.329 90.961 149.579 117.512L244.64 21.349Z" fill="#FFF5F5"/>
<path d="M211.099 83.5885L210.626 83.1046C210.619 83.1046 210.619 83.1046 210.619 83.1046C208.869 84.8766 206.822 86.2714 204.549 87.2463C202.192 88.2497 199.693 88.7621 197.11 88.7621C194.526 88.7621 192.028 88.2497 189.67 87.2463C187.398 86.2714 185.351 84.8766 183.593 83.1046L183.12 83.5885C186.699 87.2107 191.647 89.4524 197.11 89.4524C202.573 89.4524 207.521 87.2107 211.099 83.5885Z" fill="#FFF5F5"/>
<path d="M208.869 81.3255L208.389 80.8416C206.921 82.3218 205.22 83.4817 203.321 84.3001C201.352 85.1399 199.262 85.5668 197.11 85.5668C194.957 85.5668 192.868 85.1399 190.898 84.3001C189 83.4817 187.299 82.3218 185.831 80.8416L185.351 81.3255C188.365 84.3642 192.522 86.25 197.11 86.25C201.705 86.25 205.855 84.3642 208.869 81.3255Z" fill="#FFF5F5"/>
<path d="M206.631 79.0625L206.151 78.5786C204.98 79.767 203.61 80.6993 202.086 81.3469C200.512 82.0229 198.839 82.3645 197.11 82.3645C195.38 82.3645 193.708 82.0229 192.134 81.3469C190.609 80.6993 189.24 79.767 188.068 78.5786L187.588 79.0625C190.023 81.5248 193.39 83.0548 197.11 83.0548C200.829 83.0548 204.196 81.5248 206.631 79.0625Z" fill="#FFF5F5"/>
<path d="M213.337 85.8444L212.857 85.3605C210.81 87.4313 208.431 89.0539 205.777 90.1925C203.032 91.3667 200.117 91.9644 197.11 91.9644C194.103 91.9644 191.188 91.3667 188.442 90.1925C185.788 89.0539 183.41 87.4313 181.363 85.3605L180.883 85.8515C185.033 90.0501 190.771 92.6476 197.11 92.6476C203.448 92.6476 209.186 90.0501 213.337 85.8444Z" fill="#FFF5F5"/>
<path d="M204.394 76.7995L203.914 76.3156C203.032 77.2123 202.001 77.9097 200.858 78.4007C199.672 78.9131 198.408 79.1693 197.11 79.1693C195.811 79.1693 194.548 78.9131 193.362 78.4007C192.218 77.9097 191.188 77.2123 190.306 76.3156L189.826 76.7995C191.689 78.6854 194.265 79.8524 197.11 79.8524C199.954 79.8524 202.53 78.6854 204.394 76.7995Z" fill="#FFF5F5"/>
<path d="M223.007 131.46C214.805 134.968 206.095 136.748 197.11 136.748C188.125 136.748 179.415 134.968 171.213 131.46C163.286 128.066 156.172 123.212 150.059 117.028L149.579 117.512C149.974 117.911 150.37 118.302 150.772 118.693C150.963 118.878 151.16 119.056 151.358 119.241C151.563 119.433 151.767 119.626 151.972 119.818C152.24 120.067 152.508 120.302 152.784 120.544C152.918 120.665 153.052 120.786 153.186 120.899C153.504 121.184 153.835 121.462 154.16 121.739C154.245 121.81 154.322 121.874 154.407 121.946C154.774 122.252 155.141 122.55 155.515 122.849C155.558 122.885 155.6 122.92 155.649 122.956C156.052 123.276 156.461 123.589 156.87 123.903C156.877 123.91 156.892 123.924 156.906 123.931C159.482 125.881 162.199 127.646 165.044 129.211C165.065 129.218 165.079 129.233 165.1 129.24C165.545 129.482 165.99 129.717 166.434 129.951C166.491 129.98 166.554 130.015 166.611 130.044C167.013 130.25 167.423 130.457 167.832 130.656C167.945 130.713 168.058 130.763 168.164 130.82C168.524 130.99 168.884 131.161 169.244 131.325C169.413 131.41 169.589 131.481 169.759 131.56C170.062 131.695 170.359 131.83 170.662 131.965C170.902 132.065 171.142 132.165 171.382 132.271C171.622 132.371 171.862 132.471 172.102 132.563C172.406 132.691 172.716 132.812 173.02 132.933C173.196 132.997 173.373 133.068 173.549 133.132C173.923 133.275 174.297 133.41 174.671 133.545C174.784 133.588 174.897 133.623 175.017 133.666C175.448 133.823 175.878 133.965 176.316 134.107C176.372 134.129 176.436 134.15 176.492 134.171C176.979 134.328 177.459 134.477 177.946 134.62C177.961 134.627 177.975 134.634 177.996 134.634C181.102 135.566 184.264 136.264 187.447 136.726C187.461 136.733 187.475 136.733 187.489 136.733C187.997 136.812 188.506 136.876 189.021 136.94C189.07 136.947 189.127 136.954 189.176 136.954C189.649 137.018 190.129 137.068 190.602 137.11C190.708 137.125 190.814 137.132 190.913 137.139C191.343 137.182 191.767 137.217 192.197 137.253C192.367 137.26 192.543 137.274 192.712 137.281C193.079 137.303 193.446 137.331 193.814 137.345C194.082 137.36 194.35 137.367 194.618 137.381C194.893 137.388 195.169 137.402 195.444 137.409C195.987 137.424 196.538 137.431 197.082 137.431C197.096 137.431 197.117 137.431 197.138 137.431C197.681 137.431 198.232 137.424 198.775 137.409C199.051 137.402 199.326 137.388 199.601 137.381C199.87 137.367 200.138 137.36 200.406 137.345C200.78 137.331 201.147 137.303 201.514 137.281C201.684 137.274 201.853 137.26 202.022 137.253C202.453 137.217 202.883 137.182 203.307 137.139C203.413 137.132 203.519 137.125 203.617 137.11C204.097 137.068 204.57 137.011 205.05 136.954C205.1 136.954 205.149 136.947 205.199 136.94C205.714 136.876 206.222 136.812 206.737 136.733C206.751 136.733 206.758 136.733 206.773 136.726C209.956 136.264 213.118 135.566 216.224 134.634C216.245 134.634 216.259 134.627 216.273 134.62C216.76 134.477 217.24 134.328 217.727 134.171C217.783 134.15 217.847 134.129 217.903 134.107C218.341 133.965 218.772 133.816 219.209 133.666C219.322 133.623 219.435 133.588 219.548 133.545C219.922 133.41 220.296 133.275 220.67 133.132C220.847 133.068 221.023 132.997 221.193 132.933C221.503 132.812 221.814 132.691 222.117 132.563C222.357 132.464 222.597 132.371 222.837 132.271C223.077 132.165 223.317 132.065 223.557 131.965C223.861 131.83 224.157 131.695 224.461 131.56C224.63 131.481 224.806 131.41 224.976 131.325C225.336 131.161 225.696 130.99 226.056 130.82C226.162 130.763 226.275 130.713 226.388 130.656C226.797 130.457 227.206 130.25 227.609 130.044C227.665 130.015 227.729 129.98 227.785 129.951C228.23 129.717 228.681 129.482 229.119 129.24C229.14 129.233 229.154 129.218 229.176 129.211C232.02 127.646 234.737 125.881 237.321 123.931C237.328 123.924 237.335 123.917 237.349 123.91C237.758 123.597 238.168 123.276 238.577 122.949C238.62 122.92 238.655 122.892 238.697 122.856C239.071 122.558 239.445 122.252 239.812 121.946C239.897 121.882 239.975 121.81 240.052 121.746C240.384 121.469 240.709 121.184 241.041 120.899C241.168 120.786 241.295 120.672 241.422 120.558C241.697 120.316 241.979 120.067 242.247 119.818C242.445 119.633 242.636 119.455 242.833 119.27C243.038 119.078 243.243 118.886 243.454 118.686C243.829 118.323 244.21 117.946 244.584 117.569C244.605 117.555 244.619 117.533 244.64 117.512L244.16 117.028C238.048 123.212 230.933 128.066 223.007 131.46Z" fill="#FFF5F5"/>
<path d="M199.926 72.2735L199.446 71.7896C199.143 72.0956 198.79 72.3376 198.394 72.5084C197.992 72.6792 197.554 72.7717 197.11 72.7717C196.665 72.7717 196.234 72.6792 195.825 72.5084C195.43 72.3376 195.077 72.0956 194.773 71.7896L194.301 72.2806C195.013 73.0065 196.009 73.4548 197.11 73.4548C198.211 73.4548 199.206 73.0065 199.926 72.2735Z" fill="#FFF5F5"/>
<path d="M217.812 90.3704L217.332 89.8865C214.706 92.5409 211.65 94.6331 208.241 96.0848C204.719 97.5934 200.971 98.362 197.11 98.362C193.249 98.362 189.501 97.5934 185.979 96.0848C182.577 94.6331 179.513 92.5409 176.888 89.8865L176.408 90.3704C181.709 95.729 189.028 99.0452 197.11 99.0452C205.191 99.0452 212.511 95.729 217.812 90.3704Z" fill="#FFF5F5"/>
<path d="M202.156 74.5365L201.676 74.0526C201.084 74.6575 200.392 75.1272 199.63 75.4545C198.832 75.7961 197.985 75.9669 197.11 75.9669C196.234 75.9669 195.388 75.7961 194.597 75.4545C193.821 75.1272 193.136 74.6575 192.543 74.0526L192.063 74.5365C193.355 75.8459 195.14 76.6572 197.11 76.6572C199.079 76.6572 200.865 75.8459 202.156 74.5365Z" fill="#FFF5F5"/>
<path d="M215.574 88.1074L215.094 87.6235C212.758 89.9861 210.041 91.8434 207.013 93.1386C203.872 94.4836 200.547 95.1597 197.11 95.1597C193.672 95.1597 190.341 94.4836 187.207 93.1386C184.179 91.8434 181.462 89.9861 179.125 87.6235L178.645 88.1074C183.374 92.8895 189.896 95.8499 197.11 95.8499C204.323 95.8499 210.852 92.8895 215.574 88.1074Z" fill="#FFF5F5"/>
<path d="M235.697 108.467L235.217 107.983C230.27 112.986 224.503 116.921 218.087 119.668C211.445 122.508 204.387 123.952 197.11 123.952C189.833 123.952 182.774 122.508 176.132 119.668C169.716 116.921 163.95 112.986 159.002 107.983L158.522 108.467C168.397 118.459 182.04 124.636 197.11 124.636C212.179 124.636 225.823 118.459 235.697 108.467Z" fill="#FFF5F5"/>
<path d="M237.935 110.73L237.455 110.246C232.211 115.548 226.112 119.704 219.315 122.614C212.285 125.625 204.81 127.148 197.11 127.148C189.409 127.148 181.934 125.625 174.904 122.614C168.107 119.704 162.009 115.548 156.765 110.246L156.285 110.73C166.738 121.298 181.165 127.838 197.11 127.838C213.054 127.838 227.481 121.298 237.935 110.73Z" fill="#FFF5F5"/>
<path d="M242.403 115.249L241.923 114.765C236.107 120.657 229.324 125.276 221.778 128.507C213.965 131.851 205.664 133.545 197.11 133.545C188.555 133.545 180.254 131.851 172.441 128.507C164.896 125.276 158.113 120.657 152.297 114.765L151.817 115.249C163.406 126.977 179.422 134.235 197.11 134.235C214.798 134.235 230.813 126.977 242.403 115.249Z" fill="#FFF5F5"/>
<path d="M220.049 92.6334L219.569 92.1494C216.647 95.1027 213.252 97.4155 209.469 99.0309C205.559 100.71 201.401 101.557 197.11 101.557C192.818 101.557 188.661 100.71 184.751 99.0309C180.967 97.4155 177.572 95.1027 174.65 92.1494L174.177 92.6334C180.043 98.5684 188.153 102.24 197.11 102.24C206.067 102.24 214.177 98.5684 220.049 92.6334Z" fill="#FFF5F5"/>
<path d="M233.46 106.204L232.98 105.72C228.321 110.431 222.901 114.132 216.859 116.715C210.605 119.398 203.956 120.75 197.11 120.75C190.263 120.75 183.614 119.398 177.361 116.715C171.326 114.132 165.898 110.431 161.239 105.72L160.76 106.204C170.062 115.619 182.915 121.44 197.11 121.44C211.304 121.44 224.157 115.619 233.46 106.204Z" fill="#FFF5F5"/>
<path d="M240.165 112.993L239.692 112.509C234.159 118.103 227.722 122.494 220.55 125.561C213.125 128.742 205.241 130.35 197.11 130.35C188.979 130.35 181.094 128.742 173.669 125.561C166.498 122.494 160.061 118.103 154.534 112.509L154.054 112.993C165.072 124.137 180.297 131.033 197.11 131.033C213.923 131.033 229.147 124.137 240.165 112.993Z" fill="#FFF5F5"/>
<path d="M222.28 94.8964L221.8 94.4124C218.595 97.6575 214.861 100.205 210.704 101.984C206.398 103.82 201.825 104.76 197.11 104.76C192.395 104.76 187.821 103.82 183.515 101.984C179.358 100.205 175.624 97.6575 172.42 94.4124L171.94 94.8964C178.384 101.415 187.278 105.443 197.11 105.443C206.942 105.443 215.842 101.415 222.28 94.8964Z" fill="#FFF5F5"/>
<path d="M224.517 97.1594L224.037 96.6754C220.543 100.212 216.471 102.988 211.932 104.93C207.238 106.937 202.248 107.955 197.11 107.955C191.971 107.955 186.981 106.937 182.287 104.93C177.749 102.988 173.676 100.212 170.182 96.6754L169.702 97.1594C176.718 104.254 186.409 108.645 197.11 108.645C207.817 108.645 217.501 104.254 224.517 97.1594Z" fill="#FFF5F5"/>
<path d="M226.755 99.4223L226.275 98.9313C222.484 102.767 218.073 105.777 213.167 107.877C208.078 110.054 202.679 111.157 197.11 111.157C191.541 111.157 186.141 110.054 181.052 107.877C176.147 105.777 171.735 102.767 167.945 98.9384L167.465 99.4223C175.053 107.094 185.534 111.84 197.11 111.84C208.685 111.84 219.167 107.094 226.755 99.4223Z" fill="#FFF5F5"/>
<path d="M231.222 103.941L230.742 103.457C226.38 107.877 221.291 111.349 215.624 113.769C209.765 116.281 203.533 117.555 197.11 117.555C190.687 117.555 184.461 116.281 178.596 113.769C172.928 111.349 167.846 107.877 163.477 103.457L162.997 103.941C171.728 112.773 183.784 118.238 197.11 118.238C210.436 118.238 222.491 112.773 231.222 103.941Z" fill="#FFF5F5"/>
<path d="M228.992 101.678L228.512 101.194C224.432 105.322 219.682 108.56 214.395 110.823C208.918 113.164 203.102 114.352 197.11 114.352C191.117 114.352 185.301 113.164 179.824 110.823C174.537 108.56 169.787 105.322 165.707 101.194L165.227 101.678C173.387 109.933 184.659 115.043 197.11 115.043C209.561 115.043 220.833 109.933 228.992 101.678Z" fill="#FFF5F5"/>
<path d="M0.00720215 137.808H130.755V5.98483L0.00720215 137.808Z" fill="#FFF5F5"/>
<path d="M0.00720215 99.5077L19.0011 118.658L19.4669 118.188L0.00720215 98.5684V99.5077ZM0.00720215 102.703L17.4129 120.252L17.8788 119.782L0.00720215 101.757V102.703ZM0.00720215 105.891L15.8319 121.853L16.2977 121.383L0.00720215 104.952V105.891ZM0.00720215 96.3125L20.5821 117.064L21.048 116.594L0.00720215 95.3731V96.3125ZM0.00720215 80.3506L28.5015 109.079L28.9674 108.61L0.00720215 79.4112V80.3506ZM0.00720215 109.086L14.2508 123.447L14.7167 122.977L0.00720215 108.147V109.086ZM0.00720215 83.5458L26.9134 110.673L27.3792 110.204L0.00720215 82.6064V83.5458ZM0.00720215 93.1244L22.1632 115.463L22.629 114.993L0.00720215 92.185V93.1244ZM0.00720215 77.1624L30.0826 107.485L30.5484 107.015L0.00720215 76.2231V77.1624ZM0.00720215 86.7339L25.3323 112.274L25.7982 111.805L0.00720215 85.7946V86.7339ZM0.00720215 89.9291L23.7513 113.869L24.2171 113.399L0.00720215 88.9898V89.9291ZM0.00720215 134.627L1.5812 136.214L2.04705 135.744L0.00720215 133.688V134.627ZM0.00720215 6.92419L64.9152 72.366L65.3811 71.8963L0.00720215 5.98483V6.92419ZM0.00720215 131.432L3.16931 134.62L3.63516 134.15L0.00720215 130.492V131.432ZM0.46599 137.345L0.00720215 136.876V137.808L0.46599 137.345ZM0.00720215 118.665L9.5006 128.236L9.96645 127.767L0.00720215 117.726V118.665ZM0.00720215 115.47L11.0817 126.642L11.5475 126.166L0.00720215 114.53V115.47ZM0.00720215 112.282L12.6698 125.041L13.1356 124.571L0.00720215 111.335V112.282ZM0.00720215 125.048L6.33143 131.425L6.79728 130.955L0.00720215 124.109V125.048ZM0.00720215 121.853L7.91954 129.83L8.38539 129.361L0.00720215 120.914V121.853ZM0.00720215 128.236L4.75037 133.026L5.21622 132.556L0.00720215 127.297V128.236ZM0.00720215 15.5634V16.5028L60.165 77.1553L60.6308 76.6856L0.00720215 15.5634ZM0.00720215 29.2695L53.8337 83.5387L54.2996 83.069L0.00720215 28.3301V29.2695ZM0.00720215 35.6528L50.6645 86.7339L51.1304 86.2642L0.00720215 34.7206V35.6528ZM0.00720215 32.4647L52.2456 85.1327L52.7114 84.6631L0.00720215 31.5254V32.4647ZM0.00720215 38.8481L49.0835 88.328L49.5493 87.8583L0.00720215 37.9087V38.8481ZM0.00720215 25.142V26.0814L55.4148 81.9446L55.8806 81.4749L0.00720215 25.142ZM0.00720215 73.9672L31.6636 105.884L32.1295 105.414L0.00720215 73.0278V73.9672ZM0.00720215 19.6909L58.5839 78.7494L59.0498 78.2797L0.00720215 18.7515V19.6909ZM0.00720215 22.8861L56.9958 80.3434L57.4617 79.8738L0.00720215 21.9468V22.8861ZM0.00720215 13.3075L61.746 75.5613L62.2119 75.0845L0.00720215 12.3682V13.3075ZM0.00720215 10.1123L63.3342 73.9601L63.8 73.4904L0.00720215 9.17295V10.1123ZM0.00720215 42.0433L47.4954 89.922L47.9612 89.4524L0.00720215 41.104V42.0433ZM0.00720215 61.1934L37.9949 99.5006L38.4678 99.0309L0.00720215 60.254V61.1934ZM0.00720215 67.5838L34.8328 102.696L35.2986 102.226L0.00720215 66.6445V67.5838ZM0.00720215 70.772L33.2517 104.29L33.7176 103.82L0.00720215 69.8326V70.772ZM0.00720215 64.3886L36.4139 101.095L36.8797 100.632L0.00720215 63.4493V64.3886ZM0.00720215 45.2314L45.9143 91.5232L46.3802 91.0535L0.00720215 44.2921V45.2314ZM0.00720215 58.0053L39.583 97.9066L40.0489 97.4369L0.00720215 57.0659V58.0053ZM0.00720215 48.4267L44.3333 93.1173L44.7991 92.6476L0.00720215 47.4873V48.4267ZM0.00720215 54.81L41.1641 96.3125L41.6299 95.8357L0.00720215 53.8707V54.81ZM0.00720215 50.6754L43.211 94.2416L42.7451 94.7113L0.00720215 51.6219V50.6754Z" fill="#FFF5F5"/>
</svg>
