<svg width="107" height="32" viewBox="0 0 107 32" fill="none" xmlns="http://www.w3.org/2000/svg">
<path d="M17.4665 31.3437L15.3032 25.1659C14.4147 27.0186 13.2923 29.0271 11.9394 31.3437H6.64617L2.70594 19.5334C1.77683 16.7934 1.0444 15.0152 0 13.4708L4.86934 10.961C6.22231 12.4276 7.30401 14.7036 7.99914 17.3285L10.1252 25.2032C11.2442 23.1575 12.4819 20.7629 13.1771 18.9881C12.3259 16.5563 11.6308 14.8967 10.6644 13.4674L15.5337 10.9576C16.8867 12.4242 17.9311 14.7002 18.6635 17.3251L20.7896 24.7358C22.5665 21.1456 23.2616 18.7138 23.2616 16.3192C23.2616 14.8899 22.8377 13.5385 22.2172 12.4987L27.3578 10.5681C27.975 11.3404 29.0567 13.2709 29.0567 16.0889C29.0567 20.6037 27.1645 24.8137 22.9123 31.337H17.4665V31.3437Z" fill="#222146"/>
<path d="M39.3042 3.35945C39.3042 5.52033 37.68 6.21466 35.5945 6.21466C33.5837 6.21466 31.9629 5.52033 31.9629 3.35945C31.9629 0.89036 33.5871 0.233289 35.5945 0.233289C37.68 0.229902 39.3042 0.886973 39.3042 3.35945ZM42.0847 30.804C41.081 31.3832 39.4941 31.732 37.7173 31.732C34.0856 31.732 32.1901 29.8421 32.1901 26.0961C32.1901 23.7015 32.4207 21.5034 32.4207 18.2214V11.2714H38.2937V17.4492C38.2937 20.6905 38.1004 23.0072 38.1004 24.5144C38.1004 25.8252 38.6023 26.3298 39.6094 26.3298C40.3045 26.3298 40.8064 26.2147 41.3489 25.981L42.0847 30.804Z" fill="#222146"/>
<path d="M50.1548 3.35945C50.1548 5.52033 48.5305 6.21466 46.4451 6.21466C44.4343 6.21466 42.8135 5.52033 42.8135 3.35945C42.8135 0.89036 44.4377 0.233289 46.4451 0.233289C48.5305 0.229902 50.1548 0.886973 50.1548 3.35945ZM52.9353 30.804C51.9316 31.3832 50.3447 31.732 48.5678 31.732C44.9362 31.732 43.0407 29.8421 43.0407 26.0961C43.0407 23.7015 43.2712 21.5034 43.2712 18.2214V11.2714H49.1443V17.4492C49.1443 20.6905 48.951 23.0072 48.951 24.5144C48.951 25.8252 49.4529 26.3298 50.46 26.3298C51.1551 26.3298 51.657 26.2147 52.1995 25.981L52.9353 30.804Z" fill="#222146"/>
<path d="M67.2689 31.1124V26.5196C67.2689 23.0074 67.5775 20.2267 67.5775 18.3367C67.5775 16.755 67.1129 15.6339 65.492 15.6339C62.5928 15.6339 61.0466 19.9185 61.0466 24.7449V31.1124H55.1362V18.1437C55.1362 15.2106 54.9429 13.28 54.4004 11.8135L58.8832 10.6179C59.307 11.3528 59.6936 12.8566 59.8496 14.5163C61.3178 12.2402 63.8305 10.6551 66.9976 10.6551C72.1382 10.6551 73.5285 14.0895 73.5285 16.6771C73.5285 19.573 73.1792 22.0048 73.1792 25.1682V31.1124H67.2689Z" fill="#222146"/>
<path d="M98.0343 30.6859C97.4172 31.3429 95.8302 32 94.2874 32C91.4661 32 89.7673 30.4183 88.3736 27.1736L86.5968 23.0042C86.1729 23.1194 85.6304 23.1194 85.1658 23.1194C84.7793 23.1194 84.3147 23.1194 83.8909 23.0415V31.1092H77.9771V7.18036C77.9771 4.24725 77.7838 2.66554 77.282 1.12108L82.4599 0C83.077 1.04318 83.7756 2.85521 83.7756 6.05927V18.0254C84.1621 18.1033 84.586 18.1033 85.1285 18.1033C87.5632 18.1033 89.0315 17.138 89.0315 14.9771C89.0315 13.663 88.4923 12.3895 88.1804 11.851L92.9717 10.6554C93.4363 11.1566 94.596 12.6232 94.596 15.5563C94.596 17.9881 93.5922 19.956 91.89 21.1922L93.5889 24.7417C94.206 25.978 94.6333 26.3235 95.481 26.3235C95.8675 26.3235 96.2541 26.2083 96.6 25.9746L98.0343 30.6859Z" fill="#222146"/>
<path d="M107 28.8332C107 31.1092 105.376 31.7291 103.327 31.7291C101.473 31.7291 99.8484 31.1126 99.8484 28.8332C99.8484 26.3641 101.473 25.707 103.327 25.707C105.376 25.707 107 26.3641 107 28.8332Z" fill="#E52058"/>
</svg>
