<svg width="391" height="241" viewBox="0 0 391 241" fill="none" xmlns="http://www.w3.org/2000/svg">
<g clip-path="url(#clip0)">
<path d="M323.073 104.063C316.784 98.5095 308.112 92.3799 299.578 89.9137C298.875 86.3223 297.718 82.6983 296.051 79.0284C288.805 63.0798 272.749 50.9516 255.591 45.7248C238.171 40.426 220.241 45.4435 206.293 55.969C202.959 58.4876 199.805 61.3528 196.96 64.4928C188.736 63.2041 178.72 64.8264 170.579 66.0497C163.815 67.0702 152.939 69.9813 150.728 77.1902C143.75 94.3817 172.225 108.499 184.947 114.994C186.132 123.512 192.035 131.44 197.559 137.864C204.599 146.048 214.146 152.001 224.836 154.853C234.796 157.509 245.362 156.776 255.239 154.205C264.304 151.837 274.829 147.016 280.78 139.899C283.577 140.016 286.36 140.088 289.115 140.075C297.373 141.253 306.652 139.925 314.476 137.916C321.757 136.046 328.624 131.519 330.87 124.637C334.734 116.996 328.893 109.199 323.073 104.063ZM253.028 47.648C268.513 51.4422 282.061 62.0201 290.382 74.7763C294.914 81.7366 297.181 89.7764 297.745 97.8815C298.462 108.139 294.735 117.513 290.169 126.547C287.62 126.626 285.085 126.639 282.592 126.645C267.025 126.671 251.534 123.695 236.587 119.77C212.795 113.523 188.357 105.535 170.255 89.1614C167.631 85.3149 165.227 80.5918 169.07 76.8827C171.199 74.8286 174.546 73.8212 177.35 72.9708C180.677 71.9699 184.107 71.3092 187.544 70.7728C189.087 70.5308 190.912 70.5242 192.476 70.0532C186.421 78.492 182.667 88.3372 183.101 98.5029C183.129 99.1179 184.231 99.1375 184.252 98.516C185.395 66.9721 220.317 39.6279 253.028 47.648ZM300.411 97.6918C301.072 98.1889 301.885 98.588 302.519 99.0001C305.543 100.969 308.608 102.847 311.501 104.999C313.87 106.765 316.143 108.695 317.914 111.03C320.076 113.876 318.899 116.309 318.065 119.116C313.629 122.073 309.586 124.231 303.779 125.291C300.184 125.952 296.45 126.285 292.71 126.455C297.649 116.957 300.604 107.432 300.411 97.6918ZM256.128 151.078C246.836 154.042 236.793 154.506 227.219 152.694C206.851 148.854 193.599 132.919 186.318 115.675C201.217 123.198 217.066 128.817 233.398 132.827C247.601 136.32 262.954 138.891 277.949 139.755C270.889 144.151 264.352 148.462 256.128 151.078ZM329.988 123.682C327.763 127.698 325.552 130.694 321.041 133.004C317.142 134.999 312.506 135.993 308.188 136.739C301.554 137.897 294.928 137.504 288.281 137.943C280.636 136.752 272.707 136.582 265.014 135.817C256.376 134.947 247.842 133.619 239.363 131.833C223.747 128.542 208.608 123.401 194.17 116.892C178.204 109.696 148.73 97.3189 152.181 76.9612C157.202 71.1784 162.795 69.0785 171.013 67.6917C179.196 66.3114 187.668 66.9001 195.837 65.7684C194.866 66.8936 193.943 68.058 193.061 69.2486C190.024 68.4701 185.629 69.6346 182.688 70.0794C178.052 70.7728 173.43 71.9503 169.401 74.2857C162.389 78.3481 164.793 86.5578 170.076 90.9604C176.537 99.0917 187.496 104.312 196.808 108.453C210.454 114.523 224.946 119.129 239.466 122.897C255.983 127.182 273.121 129.654 290.272 128.83C300.191 128.353 316.081 128.15 321.344 118.285C321.495 118.004 321.364 117.663 321.13 117.487C322.363 114.118 320.448 110.376 317.555 107.419C314.662 104.449 310.915 102.192 307.368 100.001C305.729 98.987 302.67 96.4096 300.349 96.004C300.266 94.5583 300.108 93.0995 299.881 91.6407C313.119 99.5954 330.897 106.556 329.988 123.682Z" fill="#FFF5F5"/>
<path d="M256.934 52.0571C253.628 50.1207 249.612 48.8059 245.734 48.5246C245.493 48.505 245.417 48.8647 245.658 48.9236C249.488 49.846 253.077 51.03 256.782 52.3253C256.955 52.3907 257.092 52.1487 256.934 52.0571Z" fill="#FFF5F5"/>
<path d="M250.955 52.7701C246.939 50.7749 241.711 49.0479 237.11 49.0675C236.876 49.0675 236.787 49.4012 237.034 49.4666C241.684 50.6637 246.264 51.5926 250.838 53.0514C251.038 53.1168 251.134 52.8552 250.955 52.7701Z" fill="#FFF5F5"/>
<path d="M246.381 54.0327C242.29 51.5207 236.972 50.1731 231.93 50.1011C233.039 49.7217 234.162 49.3292 235.264 48.904C235.485 48.8255 235.381 48.4919 235.154 48.5311C232.991 48.904 230.828 49.5124 228.693 50.245C228.473 50.2647 228.238 50.2712 228.025 50.2974C227.873 50.317 227.825 50.4282 227.832 50.5394C225.242 51.4749 222.707 52.5804 220.303 53.6925C220.131 53.7252 219.952 53.7579 219.787 53.7906C219.663 53.8168 219.622 53.9149 219.635 54.0065C215.055 56.1587 210.24 58.9193 206.824 62.5499C206.7 62.6807 206.768 62.8639 206.892 62.949C205.852 63.3938 204.833 63.8713 203.862 64.4012C203.683 64.4928 203.8 64.7741 203.999 64.7087C206.906 63.8321 209.717 62.7723 212.616 61.8892C212.286 62.2359 211.962 62.5826 211.652 62.9424C211.473 63.1517 211.735 63.4134 211.962 63.2433C212.816 62.6088 213.65 61.9808 214.49 61.3593C214.662 61.3135 214.821 61.2612 214.993 61.2154C216.481 60.8425 217.989 60.5612 219.504 60.3192C218.333 61.2154 217.28 62.1967 216.398 63.276C216.343 63.3415 216.343 63.4265 216.357 63.4985C213.333 64.0545 210.371 64.8984 207.485 65.9647C203.524 67.43 199.075 69.4317 196.133 72.4278C195.968 72.5979 196.223 72.7942 196.402 72.696C200.259 70.642 203.758 68.3262 207.884 66.7104C212.169 65.0357 216.687 64.0283 221.247 63.2957C221.488 63.2564 221.447 62.8639 221.199 62.8835C219.849 62.9751 218.513 63.1387 217.183 63.3611C218.788 62.2228 220.331 61.0715 221.936 59.9856C223.555 59.809 225.187 59.6912 226.819 59.6389C224.36 60.8818 222.101 62.478 220.448 64.4012C220.276 64.5975 220.524 64.8722 220.751 64.7348C222.818 63.505 224.65 61.9546 226.716 60.7182C229.01 59.338 231.524 58.3044 234.086 57.4736C234.348 57.3885 234.265 57.0091 233.983 57.0745C231.841 57.5521 229.582 58.324 227.446 59.3445C227.419 59.3183 227.384 59.2987 227.336 59.2922C225.883 59.2333 224.395 59.2595 222.9 59.3445C223.734 58.8081 224.588 58.2978 225.497 57.8399C226.124 57.5259 226.771 57.2446 227.419 56.9699C228.941 56.9699 230.484 57.0091 232.075 57.1269C232.371 57.153 232.468 56.7278 232.165 56.6886C231.111 56.5643 230.029 56.4662 228.934 56.3811C230.794 55.7008 232.709 55.1447 234.644 54.6999C234.775 54.6737 234.789 54.5495 234.741 54.471C236.6 54.7784 238.453 55.1905 240.313 55.6288C240.52 55.6746 240.63 55.3868 240.444 55.3017C237.654 54.013 234.424 53.3262 231.118 53.0776C232.413 52.7309 233.728 52.4234 235.044 52.1356C235.216 52.0963 235.14 51.8477 234.975 51.8543C232.853 51.9917 230.642 52.3711 228.445 52.9664C226.627 52.9598 224.822 53.058 223.079 53.2673C225.249 52.3711 227.453 51.6122 229.671 50.8665C232.254 50.9842 234.803 51.1543 237.365 51.6122C240.451 52.1683 243.316 53.3262 246.251 54.3467C246.457 54.4186 246.547 54.1308 246.381 54.0327ZM213.904 60.6528C211.7 61.1892 209.537 61.8696 207.485 62.7069C209.372 61.3266 211.232 59.979 213.133 58.7034C214.655 58.3436 216.15 58.0427 217.645 57.7941C216.301 58.6707 215.041 59.6258 213.904 60.6528ZM220.613 59.5211C219.119 59.6781 217.617 59.8809 216.136 60.1687C217.5 59.1875 218.905 58.2586 220.379 57.3951C221.97 57.1988 223.575 57.0811 225.187 57.0157C223.575 57.7222 222.025 58.5595 220.613 59.5211ZM229.74 53.9672C231.324 54.0065 232.867 54.1766 234.403 54.4121C232.034 54.7261 229.499 55.3475 227.033 56.2568C225.531 56.1849 224.016 56.1587 222.508 56.2176C224.305 55.3214 226.172 54.5822 228.087 53.9607C228.631 53.9607 229.189 53.9542 229.74 53.9672ZM225.118 54.0392C223.355 54.6934 221.633 55.4849 219.987 56.3942C218.451 56.5512 216.935 56.8063 215.468 57.1988C217.025 56.2372 218.623 55.3279 220.317 54.4971C220.531 54.3925 220.751 54.2943 220.965 54.1962C222.349 54.1635 223.734 54.0981 225.118 54.0392Z" fill="#FFF5F5"/>
<path d="M216.177 66.7169C211.721 67.5281 207.457 69.314 203.414 71.2307C198.916 73.3764 194.143 76.0388 190.719 79.604C190.458 79.8788 190.809 80.2582 191.126 80.0358C194.804 77.4845 198.289 74.8875 202.291 72.7811C206.796 70.4064 211.549 68.8692 216.301 67.0898C216.529 67.0048 216.405 66.6711 216.177 66.7169Z" fill="#FFF5F5"/>
<path d="M211.556 71.7933C203.807 74.5866 194.735 79.6629 190.885 86.9634C190.754 87.212 191.091 87.4998 191.305 87.2774C194.253 84.1308 196.946 81.0693 200.487 78.4788C203.924 75.9538 207.802 73.9389 211.735 72.1858C211.969 72.0811 211.79 71.7082 211.556 71.7933Z" fill="#FFF5F5"/>
<path d="M206.7 77.8182C200.294 81.7432 193.385 86.8391 189.714 93.3415C189.555 93.6098 189.969 93.8583 190.182 93.6294C192.558 91.0454 194.694 88.3241 197.256 85.884C200.232 83.0515 203.552 80.5264 206.954 78.1845C207.202 78.021 206.954 77.6612 206.7 77.8182Z" fill="#FFF5F5"/>
<path d="M204.757 82.9076C199.137 87.2316 192.069 92.8575 189.686 99.5888C189.597 99.844 190.017 100.021 190.182 99.8113C192.276 97.0768 194.012 94.192 196.34 91.6015C199.019 88.625 202.05 85.956 205.06 83.2805C205.294 83.0777 205.005 82.7113 204.757 82.9076Z" fill="#FFF5F5"/>
<path d="M202.636 89.2334C198.84 92.4126 194.136 96.9067 193.123 101.787C193.068 102.062 193.495 102.219 193.647 101.99C194.866 100.197 195.706 98.1889 196.932 96.39C198.634 93.8976 200.776 91.68 203.021 89.6324C203.256 89.4165 202.877 89.0306 202.636 89.2334Z" fill="#FFF5F5"/>
<path d="M200.686 96.3311C198.455 98.4375 195.789 101.486 195.197 104.495C195.121 104.861 195.631 104.966 195.817 104.685C196.595 103.514 197.077 102.153 197.793 100.943C198.703 99.4253 199.832 98.0319 201.086 96.7628C201.348 96.4946 200.969 96.0694 200.686 96.3311Z" fill="#FFF5F5"/>
<path d="M199.825 102.415C199.061 103.684 198.303 105.071 198.014 106.516C197.986 106.673 198.227 106.817 198.344 106.667C199.254 105.463 199.674 103.978 200.418 102.683C200.624 102.33 200.032 102.068 199.825 102.415Z" fill="#FFF5F5"/>
<path d="M200.941 120.764C200.955 120.463 200.493 120.398 200.445 120.705C200.204 122.426 199.963 124.329 200.294 126.05C200.342 126.292 200.673 126.226 200.721 126.017C201.051 124.31 200.852 122.491 200.941 120.764Z" fill="#FFF5F5"/>
<path d="M219.78 143.909C218.891 141.966 218.085 140.232 217.789 138.237C217.851 138.276 217.913 138.329 217.975 138.368C218.196 138.505 218.506 138.27 218.327 138.047C218.127 137.805 217.899 137.576 217.686 137.334C217.665 137.027 217.658 136.719 217.658 136.399C217.665 136.032 217.094 135.974 217.066 136.34C217.059 136.438 217.059 136.536 217.052 136.634C215.998 135.542 214.862 134.508 213.767 133.455C213.76 132.925 213.78 132.389 213.842 131.833C213.884 131.447 213.278 131.453 213.223 131.82C213.167 132.134 213.133 132.467 213.092 132.801C213.03 132.735 212.968 132.677 212.906 132.618C211.838 131.538 210.825 130.42 209.834 129.288C209.854 128.686 209.896 128.084 209.951 127.482C209.985 127.168 209.51 127.142 209.448 127.437C209.365 127.816 209.296 128.209 209.234 128.608C208.614 127.888 207.988 127.168 207.368 126.449C207.209 126.266 206.92 126.449 207.051 126.652C207.671 127.626 208.36 128.634 209.097 129.635C208.952 130.806 208.883 132.016 208.931 133.233C208.05 132.376 207.223 131.486 206.445 130.551C206.348 128.438 206.273 126.331 206.514 124.199C206.541 123.924 206.059 123.832 206.004 124.107C205.68 125.742 205.425 127.437 205.343 129.124C204.688 128.222 204.096 127.26 203.566 126.226C203.621 124.892 203.751 123.544 203.999 122.223C204.048 121.935 203.593 121.863 203.524 122.151C203.324 122.975 203.09 123.885 202.911 124.827C202.863 124.715 202.808 124.604 202.76 124.486C202.691 124.323 202.408 124.408 202.45 124.578C202.539 124.957 202.643 125.337 202.76 125.71C202.532 127.227 202.498 128.765 202.994 130.086C203.076 130.289 203.352 130.197 203.386 130.027C203.579 129.268 203.566 128.483 203.545 127.705C204.034 128.752 204.633 129.766 205.308 130.734C205.343 132.179 205.522 133.619 205.942 135.012C206.052 135.359 206.576 135.234 206.576 134.901C206.582 134.031 206.548 133.167 206.52 132.31C207.306 133.246 208.167 134.142 209.083 134.979C209.351 136.902 209.93 138.754 210.998 140.337C211.149 140.553 211.563 140.435 211.514 140.167C211.287 138.839 210.867 137.544 210.529 136.242C211.418 136.968 212.341 137.661 213.278 138.302C213.588 139.768 214.132 141.161 215.02 142.339C215.227 142.6 215.592 142.384 215.523 142.097C215.296 141.128 215.034 140.206 214.793 139.29C215.089 139.473 215.385 139.663 215.682 139.833C215.964 140.003 216.219 139.657 215.978 139.447C215.482 139.009 214.986 138.577 214.49 138.152C214.235 137.164 214.022 136.17 213.891 135.149C214.889 136.104 215.943 136.974 217.032 137.727C217.066 140.042 217.638 142.515 219.256 144.236C219.47 144.465 219.904 144.183 219.78 143.909ZM210.123 134.358C209.916 133.115 209.827 131.846 209.813 130.583C210.791 131.852 211.845 133.095 212.975 134.253C212.94 135.136 212.961 136.039 213.057 136.935C212.058 136.078 211.073 135.228 210.123 134.358Z" fill="#FFF5F5"/>
<path d="M224.684 144.609C224.264 143.954 223.72 143.372 223.307 142.711C222.88 142.038 222.542 141.312 222.232 140.585C222.101 140.278 221.543 140.494 221.66 140.808C222.204 142.247 222.921 144.053 224.319 144.949C224.533 145.086 224.822 144.824 224.684 144.609Z" fill="#FFF5F5"/>
<path d="M233.79 60.45C231.91 60.9603 230.229 61.7584 228.638 62.8443C227.57 63.5704 226.131 64.5386 225.766 65.7684C225.704 65.9647 225.938 66.0759 226.103 66.0039C227.439 65.4413 228.459 64.0218 229.637 63.1844C230.945 62.2424 232.433 61.5229 233.969 60.9864C234.286 60.8752 234.114 60.3584 233.79 60.45Z" fill="#FFF5F5"/>
<path d="M234.465 63.1975C233.411 63.7732 232.385 64.3881 231.4 65.0684C230.553 65.6572 229.458 66.3964 229.01 67.3253C228.906 67.5477 229.127 67.8159 229.382 67.6786C230.298 67.1683 231.056 66.2917 231.875 65.6441C232.784 64.9311 233.763 64.3096 234.754 63.7143C235.085 63.5115 234.81 63.0078 234.465 63.1975Z" fill="#FFF5F5"/>
<path d="M233.308 67.7832C232.702 68.1888 232.185 68.6925 231.662 69.1897C231.579 69.2682 231.655 69.4318 231.779 69.3729C232.447 69.0785 233.005 68.614 233.611 68.2215C233.907 68.0318 233.597 67.587 233.308 67.7832Z" fill="#FFF5F5"/>
<path d="M213.663 142.803C210.316 139.814 206.858 137.053 203.889 133.704C200.7 130.099 198.599 126.05 196.285 121.929C196.182 121.752 195.844 121.804 195.899 122.033C196.85 126.357 199.612 130.237 202.436 133.671C205.418 137.295 209.179 140.814 213.436 143.052C213.601 143.137 213.808 142.94 213.663 142.803Z" fill="#FFF5F5"/>
<path d="M219.787 134.404C218.885 133.501 217.803 132.781 216.825 131.957C215.544 130.871 214.38 129.694 213.347 128.392C213.167 128.176 212.754 128.424 212.92 128.66C214.524 130.989 216.832 133.579 219.587 134.724C219.801 134.816 219.931 134.554 219.787 134.404Z" fill="#FFF5F5"/>
<path d="M221.082 132.991C220.744 132.336 220.097 131.898 219.511 131.44C218.712 130.825 217.796 130.23 216.859 129.818C216.673 129.733 216.487 129.994 216.632 130.132C217.197 130.708 217.886 131.172 218.513 131.682C219.201 132.245 219.883 132.971 220.696 133.35C220.923 133.455 221.192 133.206 221.082 132.991Z" fill="#FFF5F5"/>
<path d="M171.894 69.7588C165.495 71.4531 159.441 78.9499 162.492 85.2037C162.63 85.4915 163.112 85.3672 163.05 85.0532C162.444 81.7497 162.651 78.9826 164.641 76.15C166.536 73.4549 169.539 72.1073 172.135 70.184C172.349 70.027 172.135 69.6934 171.894 69.7588Z" fill="#FFF5F5"/>
<path d="M165.73 71.8522C162.265 73.6053 158.979 77.3406 159.634 81.318C159.675 81.5404 160.047 81.5927 160.123 81.3637C160.584 79.8657 160.784 78.3546 161.459 76.9154C162.368 74.9595 164.09 73.3371 165.923 72.1531C166.122 72.0222 165.943 71.7475 165.73 71.8522Z" fill="#FFF5F5"/>
<path d="M162.341 72.9643C160.832 73.5792 159.668 74.5212 158.745 75.8099C158.029 76.8173 157.168 78.4527 157.526 79.6891C157.581 79.8788 157.864 79.9704 157.987 79.7741C158.229 79.4143 158.235 79.4012 158.359 78.9499C158.752 77.5761 158.904 76.8565 160.088 75.3585C160.75 74.5212 161.555 73.8212 162.451 73.2063C162.568 73.1213 162.492 72.9054 162.341 72.9643Z" fill="#FFF5F5"/>
<path d="M159.007 73.638C158.056 74.2726 157.285 74.9529 156.61 75.8687C156.1 76.5687 155.528 77.5041 155.632 78.3742C155.652 78.5573 155.887 78.6686 156.031 78.5181C156.569 77.9424 156.803 77.1313 157.195 76.464C157.726 75.5482 158.435 74.6454 159.276 73.9716C159.468 73.8146 159.22 73.5006 159.007 73.638Z" fill="#FFF5F5"/>
<path d="M155.508 75.9538C155.46 76.1697 155.349 76.3332 155.336 76.5556C155.329 76.6865 155.556 76.7322 155.604 76.608C155.68 76.4182 155.79 76.2482 155.838 76.0519C155.88 75.8426 155.549 75.751 155.508 75.9538Z" fill="#FFF5F5"/>
<path d="M324.278 115.936C323.238 118.259 322.377 120.385 320.621 122.341C318.602 124.591 315.847 125.841 313.106 127.103C312.927 127.188 312.954 127.502 313.188 127.463C318.657 126.573 324.443 121.503 324.685 116.021C324.691 115.793 324.368 115.734 324.278 115.936Z" fill="#FFF5F5"/>
<path d="M326.09 118.305C324.237 121.117 323.031 123.616 320.118 125.684C316.26 128.431 311.501 129.412 306.824 129.923C306.459 129.962 306.507 130.452 306.865 130.452C311.019 130.446 315.117 129.425 318.761 127.541C322.136 125.801 326.124 122.256 326.331 118.37C326.338 118.246 326.152 118.2 326.09 118.305Z" fill="#FFF5F5"/>
<path d="M327.398 120.463C325.966 122.694 324.932 124.755 322.825 126.534C320.862 128.189 318.506 129.36 316.102 130.315C311.618 132.107 306.838 132.768 302.037 133.278C301.83 133.298 301.796 133.632 302.023 133.645C307.575 133.92 313.367 132.592 318.361 130.348C322.219 128.621 327.474 125.042 327.708 120.561C327.715 120.404 327.495 120.326 327.398 120.463Z" fill="#FFF5F5"/>
<path d="M328.122 123.531C325.973 126.743 323.651 129.255 320.028 131.022C316.012 132.984 311.542 133.481 307.154 134.122C306.851 134.168 306.934 134.626 307.23 134.626C315.179 134.639 325.78 131.689 328.514 123.701C328.59 123.479 328.252 123.335 328.122 123.531Z" fill="#FFF5F5"/>
<path d="M252.112 127.254C246.168 126.174 240.623 124.493 234.865 122.786C234.686 122.727 234.562 122.962 234.741 123.047C240.045 125.402 246.134 127.509 252.05 127.672C252.298 127.679 252.353 127.299 252.112 127.254Z" fill="#FFF5F5"/>
<path d="M255.356 129.851C251.754 128.457 247.601 128.11 243.819 127.227C239.686 126.266 235.905 124.774 232.047 123.106C231.793 122.995 231.579 123.289 231.813 123.453C235.009 125.69 238.908 126.835 242.689 127.823C246.691 128.869 251.141 130.014 255.295 130.165C255.494 130.171 255.536 129.923 255.356 129.851Z" fill="#FFF5F5"/>
<path d="M255.908 131.277C251.906 130.596 247.904 129.936 243.943 129.046C239.645 128.078 235.478 126.632 231.18 125.67C230.994 125.631 230.952 125.893 231.104 125.965C238.44 129.425 247.718 131.198 255.852 131.643C256.1 131.663 256.169 131.316 255.908 131.277Z" fill="#FFF5F5"/>
<path d="M251.906 132.578C248.971 131.983 246.016 131.512 243.075 130.943C240.127 130.374 237.172 129 234.238 128.653C234.169 128.647 234.121 128.739 234.169 128.784C236.091 130.551 239.5 131.054 242.001 131.61C245.252 132.323 248.524 132.729 251.851 132.899C252.043 132.906 252.099 132.618 251.906 132.578Z" fill="#FFF5F5"/>
<path d="M237.923 205.675C230.36 204.295 222.673 202.829 215.007 202.129C210.088 201.678 210.24 196.667 209.255 192.886C208.098 188.438 207.257 183.891 205.818 179.515C205.639 178.992 204.847 179.247 204.874 179.744C204.895 180.038 204.936 180.326 204.957 180.614C204.151 183.375 203.669 186.227 203.028 189.027C202.463 191.525 201.596 200.304 198.344 201.22C190.568 203.412 182.722 205.394 174.973 207.657C173.851 207.984 174.243 209.535 175.256 209.692C183.225 210.935 191.084 212.662 198.847 214.794C198.978 214.827 199.095 214.827 199.205 214.82C199.515 218.569 200.955 222.363 201.85 226.007C202.89 230.226 203.807 234.498 204.502 238.782C204.661 239.764 206.093 239.567 206.231 238.678C207.595 230.075 211.073 222.095 212.837 213.63C212.864 213.479 212.83 213.362 212.768 213.27C220.992 210.686 229.623 209.319 238.088 207.638C238.371 207.579 238.681 207.245 238.694 206.97C238.701 206.872 238.701 206.774 238.708 206.682C238.743 206.185 238.46 205.767 237.923 205.675ZM225.056 208.534C220.73 209.26 216.46 210.104 212.251 211.301C211.28 211.576 211.315 212.714 211.914 213.152C211.804 213.211 211.714 213.29 211.659 213.401C208.704 219.576 206.892 226.55 205.501 233.359C204.523 226.713 203.125 219.393 199.984 213.911C199.991 213.492 199.77 213.061 199.24 212.91C192.937 211.17 186.559 209.751 180.146 208.475C183.191 207.664 186.235 206.846 189.273 205.996C192.579 205.073 198.358 204.131 200.907 201.822C202.415 200.455 202.828 194.809 203.324 192.84C204.075 189.883 204.874 186.848 205.315 183.8C206.259 190.237 208.394 196.661 209.985 202.908C210.054 203.183 210.378 203.457 210.674 203.49C218.464 204.341 226.158 205.78 233.893 206.938C232.778 207.186 231.655 207.422 230.525 207.611C228.707 207.938 226.881 208.226 225.056 208.534Z" fill="#FFF5F5"/>
<path d="M306.342 189.216C301.1 187.162 293.633 186.75 287.834 187.45C287.289 184.617 286.098 181.811 285.264 179.044C284.465 176.388 283.935 173.621 282.695 171.109C282.516 170.749 282.006 170.9 281.875 171.2C281.614 171.135 281.311 171.272 281.29 171.626C281.063 176.113 280.112 180.365 278.934 184.702C277.901 188.497 266.791 189.962 263.092 189.975C261.576 189.982 261.466 191.813 262.727 192.31C267.597 194.227 273.307 196.831 278.61 197.217C278.197 202.182 280.133 207.71 281.359 212.472C281.634 213.545 283.074 213.322 283.267 212.341C283.818 209.554 284.603 206.833 285.409 204.105C286.098 201.75 287.234 199.16 287.296 196.667C291.601 195.437 295.789 193.874 299.998 192.389C301.582 191.833 305.563 191.126 306.569 189.825C306.741 189.602 306.59 189.308 306.342 189.216ZM296.926 192.153C293.537 193.194 290.155 194.168 286.711 195.032C286.663 195.045 286.628 195.071 286.587 195.091C286.442 195.117 286.298 195.195 286.208 195.352C284.941 197.524 284.631 200.193 283.949 202.587C283.453 204.308 282.95 206.028 282.482 207.755C281.841 204 281.173 200.147 279.899 196.693C279.843 196.549 279.74 196.445 279.616 196.379C279.637 196.085 279.52 195.791 279.189 195.653C275.614 194.129 271.819 192.938 268.072 191.676C271.86 190.793 275.456 189.255 279.286 188.261C279.575 188.189 279.781 187.914 279.83 187.653C280.636 183.584 282.206 179.404 282.42 175.217C282.75 176.624 283.163 178.01 283.542 179.397C284.293 182.145 284.954 185.18 286.318 187.744C285.85 188.091 285.808 188.915 286.559 188.987C289.349 189.249 292.166 189.282 294.97 189.452C298.179 189.648 301.761 190.57 304.964 190.165C304.034 190.289 302.567 190.485 302.271 190.564C300.473 191.002 298.696 191.61 296.926 192.153Z" fill="#FFF5F5"/>
<path d="M54.0885 61.0061L57.4637 61.4705C57.7874 61.5163 58.0629 61.706 58.2076 61.9808L59.7161 64.8853L61.2245 61.9808C61.3692 61.706 61.6447 61.5163 61.9615 61.4705L65.3436 61.0061L62.8983 58.7427C62.6641 58.5268 62.5608 58.2193 62.6159 57.9184L63.1945 54.7261L60.1707 56.2307C59.8883 56.3746 59.5439 56.3746 59.2614 56.2307L56.2376 54.7261L56.8162 57.9184C56.8713 58.2193 56.7611 58.5268 56.5338 58.7427L54.0885 61.0061ZM59.7161 67.9206C59.3441 67.9206 58.9997 67.7178 58.8344 67.3973L56.6715 63.2433L51.843 62.5761C51.4711 62.5237 51.1611 62.2752 51.044 61.9415C50.9338 61.6014 51.0303 61.235 51.2989 60.9865L54.7911 57.7483L53.9714 53.1822C53.9026 52.829 54.0541 52.4757 54.3572 52.2664C54.6602 52.0636 55.0597 52.0309 55.3904 52.201L59.7161 54.3597L64.0417 52.201C64.3655 52.0309 64.7719 52.0636 65.0749 52.2664C65.3711 52.4757 65.5227 52.829 65.4607 53.1822L64.6341 57.7483L68.1332 60.9865C68.4019 61.235 68.4983 61.6014 68.3812 61.9415C68.2641 62.2752 67.961 62.5237 67.5891 62.5761L62.7537 63.2433L60.5977 67.3973C60.4324 67.7178 60.088 67.9206 59.7161 67.9206Z" fill="#656263"/>
<path d="M140.898 52.2403L146.292 52.986C146.615 53.0253 146.891 53.215 147.036 53.4897L149.446 58.1278L151.857 53.4897C152.002 53.215 152.277 53.0253 152.594 52.986L157.987 52.2403L154.082 48.6293C153.855 48.4134 153.744 48.1059 153.8 47.805L154.723 42.7091L149.901 45.1164C149.619 45.2538 149.274 45.2538 148.985 45.1164L144.163 42.7091L145.086 47.805C145.141 48.1059 145.038 48.4134 144.804 48.6293L140.898 52.2403ZM149.446 61.1631C149.074 61.1631 148.73 60.9668 148.565 60.6463L145.5 54.7523L138.653 53.8103C138.281 53.7579 137.978 53.5159 137.861 53.1757C137.744 52.8421 137.84 52.4692 138.109 52.2206L143.068 47.6349L141.897 41.1652C141.835 40.812 141.987 40.4587 142.283 40.2494C142.586 40.0466 142.985 40.0139 143.316 40.1774L149.446 43.2389L155.57 40.1774C155.9 40.0139 156.3 40.0466 156.603 40.2494C156.906 40.4587 157.058 40.812 156.996 41.1652L155.825 47.6349L160.777 52.2206C161.046 52.4692 161.142 52.8421 161.025 53.1757C160.915 53.5159 160.605 53.7579 160.233 53.8103L153.386 54.7523L150.321 60.6463C150.156 60.9668 149.818 61.1631 149.446 61.1631Z" fill="#656263"/>
<path d="M114.166 105.777L117.823 106.281C118.14 106.32 118.416 106.51 118.56 106.785L120.193 109.931L121.825 106.785C121.97 106.51 122.246 106.32 122.562 106.281L126.22 105.777L123.575 103.331C123.348 103.115 123.237 102.807 123.293 102.506L123.919 99.0524L120.648 100.681C120.365 100.825 120.021 100.825 119.738 100.681L116.466 99.0524L117.093 102.506C117.148 102.807 117.045 103.115 116.811 103.331L114.166 105.777ZM120.193 112.967C119.821 112.967 119.477 112.764 119.311 112.443L117.031 108.054L111.92 107.347C111.548 107.295 111.245 107.046 111.128 106.713C111.011 106.373 111.108 106.006 111.376 105.758L115.075 102.336L114.2 97.5086C114.138 97.1553 114.29 96.8021 114.593 96.5927C114.889 96.39 115.289 96.3572 115.626 96.5208L120.193 98.8038L124.767 96.5208C125.097 96.3572 125.497 96.39 125.8 96.5927C126.096 96.8021 126.247 97.1553 126.185 97.5086L125.311 102.336L129.01 105.758C129.278 106.006 129.375 106.373 129.258 106.713C129.147 107.046 128.837 107.295 128.465 107.347L123.361 108.054L121.075 112.443C120.909 112.764 120.565 112.967 120.193 112.967Z" fill="#656263"/>
<path d="M96.5877 69.7261C96.8494 69.7261 97.1043 69.8242 97.2902 70.0074L99.6735 72.3297L100.163 69.1243C100.204 68.8168 100.411 68.5552 100.7 68.4243L103.758 66.9852L100.7 65.5525C100.411 65.4152 100.204 65.1535 100.163 64.8526L99.6735 61.6472L97.2902 63.9695C97.0629 64.1853 96.7392 64.2835 96.4224 64.2311L93.0541 63.6882L94.6452 66.5534C94.7968 66.8282 94.7968 67.1487 94.6452 67.4235L93.0541 70.2887L96.4224 69.7392C96.4775 69.7327 96.5326 69.7261 96.5877 69.7261ZM100.355 75.2604C100.094 75.2604 99.8388 75.1623 99.6528 74.9791L96.2433 71.6559L91.4285 72.4409C91.0635 72.4998 90.6915 72.3559 90.4711 72.0746C90.2507 71.7867 90.2231 71.4073 90.3953 71.0933L92.6684 66.9852L90.3953 62.8835C90.2231 62.5695 90.2507 62.1901 90.4711 61.9023C90.6915 61.6144 91.0635 61.4705 91.4285 61.5359L96.2433 62.3144L99.6528 58.9978C99.9146 58.7427 100.3 58.6511 100.658 58.7623C101.01 58.8669 101.272 59.1613 101.327 59.5146L102.029 64.1003L106.41 66.1544C106.741 66.3114 106.954 66.6319 106.954 66.9852C106.954 67.345 106.741 67.6655 106.41 67.8225L102.029 69.8766L101.327 74.4623C101.272 74.8155 101.01 75.1034 100.658 75.2146C100.562 75.2473 100.459 75.2604 100.355 75.2604Z" fill="#656263"/>
<path d="M68.1608 93.564C68.4226 93.564 68.6774 93.6621 68.8634 93.8453L69.7382 94.6891L69.9173 93.5182C69.9586 93.2173 70.1652 92.9556 70.4545 92.8182L71.5704 92.2949L70.4545 91.7716C70.1652 91.6407 69.9586 91.3725 69.9173 91.0716L69.7382 89.9006L68.8634 90.7511C68.643 90.9669 68.3123 91.0716 67.9955 91.0193L66.7694 90.8165L67.348 91.8631C67.4996 92.1313 67.4996 92.4584 67.348 92.7332L66.7694 93.7798L67.9955 93.5771C68.0506 93.5705 68.1057 93.564 68.1608 93.564ZM70.4201 97.6263C70.1583 97.6263 69.9035 97.5217 69.7175 97.3385L67.8233 95.4938L65.1439 95.9321C64.7719 95.9909 64.3999 95.847 64.1864 95.5592C63.966 95.2713 63.9316 94.8919 64.1107 94.5779L65.3712 92.2949L64.1107 90.0118C63.9316 89.6978 63.966 89.3184 64.1864 89.0306C64.3999 88.7428 64.7719 88.5988 65.1439 88.6643L67.8233 89.096L69.7175 87.2513C69.9792 86.9961 70.3719 86.9046 70.7232 87.0158C71.0813 87.127 71.3362 87.4148 71.3913 87.7681L71.7839 90.3193L74.2154 91.4641C74.5529 91.6211 74.7664 91.9416 74.7664 92.2949C74.7664 92.6481 74.5529 92.9752 74.2154 93.1322L71.7839 94.2705L71.3913 96.8283C71.3362 97.175 71.0813 97.4693 70.7232 97.574C70.6267 97.6067 70.5234 97.6263 70.4201 97.6263Z" fill="#656263"/>
<path d="M90.719 24.7194C90.9326 24.7194 91.1323 24.7849 91.3045 24.9092L97.8344 29.5276L97.731 21.8019C97.7242 21.4944 97.8826 21.2066 98.1443 21.0299L104.791 16.562L97.0147 14.2724C96.7116 14.1808 96.4705 13.9519 96.3741 13.6575L93.9564 6.27849L89.2519 12.5847C89.0659 12.8398 88.7491 12.9837 88.4391 12.9837L80.2975 12.879L85.1673 19.0805C85.3602 19.3226 85.4153 19.6431 85.3051 19.9309L82.6945 27.2511L90.4091 24.7718C90.5055 24.7391 90.6157 24.7194 90.719 24.7194ZM98.84 32.3339C98.6334 32.3339 98.4267 32.2751 98.2545 32.1508L90.5468 26.6885L81.4409 29.6257C81.0896 29.7369 80.697 29.6519 80.4352 29.3967C80.1666 29.1482 80.077 28.7753 80.1941 28.4417L83.2869 19.8001L77.5354 12.48C77.3081 12.1987 77.2805 11.8193 77.4458 11.5053C77.618 11.1913 77.9555 10.9885 78.3344 10.995L87.9501 11.1128L93.5018 3.66183C93.7153 3.36745 94.0873 3.22353 94.4523 3.27587C94.8243 3.33474 95.1274 3.58333 95.2376 3.92349L98.0892 12.637L107.278 15.3452C107.629 15.4499 107.891 15.7377 107.953 16.091C108.008 16.4377 107.856 16.7909 107.546 16.9937L99.701 22.2663L99.8181 31.2742C99.825 31.3134 99.8319 31.3592 99.8319 31.405C99.8319 31.9218 99.3842 32.3209 98.8469 32.3339H98.84Z" fill="#656263"/>
<path d="M335.368 6.29813L338.743 6.76259C339.067 6.80838 339.342 6.99808 339.487 7.27284L340.995 10.1773L342.504 7.27284C342.648 6.99808 342.924 6.80838 343.241 6.76259L346.623 6.29813L344.178 4.03471C343.943 3.81884 343.84 3.51138 343.895 3.21046L344.474 0.0181281L341.45 1.52271C341.168 1.66663 340.823 1.66663 340.541 1.52271L337.517 0.0181281L338.095 3.21046C338.151 3.51138 338.047 3.81884 337.813 4.03471L335.368 6.29813ZM340.995 13.2127C340.623 13.2127 340.279 13.0099 340.114 12.6893L337.951 8.53538L333.122 7.86813C332.75 7.81579 332.447 7.56721 332.33 7.23359C332.213 6.89342 332.31 6.52709 332.578 6.2785L336.077 3.04038L335.251 -1.5257C335.189 -1.87896 335.333 -2.2322 335.636 -2.44154C335.94 -2.64433 336.339 -2.67704 336.67 -2.50695L340.995 -0.348205L345.321 -2.50695C345.652 -2.67704 346.051 -2.64433 346.354 -2.44154C346.657 -2.2322 346.809 -1.87896 346.74 -1.5257L345.92 3.04038L349.412 6.2785C349.681 6.52709 349.778 6.89342 349.66 7.23359C349.55 7.56721 349.24 7.81579 348.868 7.86813L344.04 8.53538L341.877 12.6893C341.712 13.0099 341.367 13.2127 340.995 13.2127Z" fill="#656263"/>
<path d="M377.867 15.0182C378.129 15.0182 378.384 15.1163 378.57 15.2995L380.953 17.6217L381.442 14.4163C381.49 14.1089 381.69 13.8472 381.979 13.7098L385.037 12.2772L381.979 10.8446C381.69 10.7072 381.49 10.4455 381.442 10.1446L380.953 6.93921L378.57 9.2615C378.342 9.47737 378.018 9.5755 377.702 9.52317L374.333 8.98021L375.924 11.8455C376.076 12.1202 376.076 12.4407 375.924 12.709L374.333 15.5807L377.702 15.0312C377.757 15.0247 377.812 15.0182 377.867 15.0182ZM381.635 20.5524C381.373 20.5524 381.118 20.4543 380.932 20.2711L377.523 16.948L372.708 17.733C372.343 17.7918 371.971 17.6479 371.75 17.3666C371.53 17.0788 371.502 16.6994 371.675 16.3854L373.948 12.2772L371.675 8.17558C371.502 7.86158 371.53 7.48217 371.75 7.19433C371.971 6.9065 372.343 6.76258 372.708 6.828L377.523 7.60646L380.932 4.28983C381.194 4.03471 381.58 3.94312 381.938 4.05433C382.296 4.159 382.551 4.45337 382.606 4.80663L383.308 9.39233L387.689 11.4464C388.027 11.6034 388.233 11.924 388.233 12.2772C388.233 12.6305 388.027 12.9575 387.689 13.1145L383.308 15.1686L382.606 19.7543C382.551 20.1076 382.296 20.3954 381.938 20.5066C381.841 20.5393 381.738 20.5524 381.635 20.5524Z" fill="#656263"/>
<path d="M349.44 38.856C349.709 38.856 349.957 38.9541 350.143 39.1373L351.017 39.9812L351.196 38.8102C351.238 38.5093 351.444 38.2476 351.734 38.1102L352.85 37.5869L351.734 37.0636C351.444 36.9262 351.238 36.6645 351.196 36.3636L351.017 35.1927L350.143 36.0431C349.922 36.2589 349.598 36.3636 349.275 36.3113L348.049 36.1085L348.627 37.1552C348.779 37.4234 348.779 37.7504 348.627 38.0187L348.049 39.0719L349.275 38.8691C349.33 38.8625 349.385 38.856 349.44 38.856ZM351.699 42.9184C351.438 42.9184 351.183 42.8137 350.997 42.6305L349.102 40.7858L346.423 41.2241C346.058 41.2829 345.679 41.139 345.466 40.8512C345.245 40.5634 345.218 40.1839 345.39 39.8699L346.65 37.5869L345.39 35.3039C345.218 34.9899 345.245 34.6104 345.466 34.3226C345.679 34.0348 346.058 33.8909 346.423 33.9497L349.102 34.388L350.997 32.5433C351.258 32.2882 351.651 32.1966 352.002 32.3078C352.361 32.419 352.615 32.7068 352.67 33.0601L353.063 35.6113L355.501 36.7561C355.832 36.9131 356.046 37.2337 356.046 37.5869C356.046 37.9402 355.832 38.2672 355.501 38.4242L353.063 39.5625L352.67 42.1203C352.615 42.467 352.361 42.7614 352.002 42.866C351.906 42.8987 351.803 42.9184 351.699 42.9184Z" fill="#656263"/>
<path d="M232.667 11.1717L227.24 11.6361C226.916 11.6623 226.599 11.538 226.392 11.3025L222.921 7.31863L221.702 12.3623C221.633 12.6566 221.406 12.9052 221.109 13.0164L216.04 14.9266L220.717 17.5825C220.992 17.7395 221.171 18.0143 221.192 18.3217L221.536 23.4831L225.642 20.0814C225.89 19.8786 226.22 19.8067 226.537 19.8786L231.813 21.1608L229.678 16.405C229.547 16.1237 229.575 15.8032 229.747 15.5415L232.667 11.1717ZM222.184 4.36179C222.542 4.2833 222.928 4.40105 223.162 4.67579L227.577 9.7325L234.472 9.15029C234.844 9.11758 235.202 9.28767 235.395 9.59513C235.588 9.89604 235.588 10.2755 235.388 10.5764L231.682 16.1237L234.396 22.1682C234.541 22.4953 234.479 22.8682 234.238 23.1364C233.997 23.4111 233.611 23.5223 233.253 23.4373L226.544 21.8084L221.33 26.1259C221.047 26.3614 220.655 26.4203 220.31 26.2829C219.966 26.1455 219.732 25.8381 219.704 25.4848L219.27 18.9235L213.333 15.5546C213.009 15.3714 212.823 15.0313 212.857 14.678C212.885 14.3248 213.126 14.0173 213.471 13.8865L219.904 11.466L221.454 5.06175C221.536 4.71504 221.819 4.44684 222.184 4.36179Z" fill="#656263"/>
<path d="M288.185 26.924C287.985 26.9698 287.765 26.9567 287.572 26.8716L280.091 23.8101L282.075 31.3069C282.158 31.6013 282.075 31.9218 281.862 32.1508L276.482 37.9532L284.603 38.4766C284.927 38.4962 285.216 38.6663 285.381 38.9279L289.535 45.5808L292.573 38.4111C292.69 38.1233 292.965 37.9074 293.268 37.8486L301.21 36.1543L294.963 31.1957C294.715 30.9994 294.584 30.6985 294.618 30.3976L295.376 22.6981L288.481 26.8062C288.392 26.8651 288.288 26.9044 288.185 26.924ZM278.431 21.3047C278.638 21.2589 278.852 21.272 279.051 21.3505L287.875 24.968L296.023 20.1206C296.34 19.9309 296.74 19.9309 297.057 20.1141C297.373 20.3038 297.553 20.644 297.518 20.9972L296.616 30.0836L303.993 35.9384C304.282 36.1608 304.406 36.5271 304.317 36.8673C304.227 37.214 303.945 37.4888 303.58 37.5607L294.198 39.5559L290.609 48.0274C290.472 48.3545 290.148 48.5834 289.776 48.6096C289.404 48.6358 289.046 48.4591 288.853 48.1517L283.956 40.3017L274.361 39.6802C273.989 39.6606 273.665 39.4316 273.52 39.1046C273.382 38.7775 273.444 38.4046 273.692 38.1364L280.05 31.2873L277.736 22.5476C277.722 22.5084 277.708 22.4691 277.694 22.4233C277.57 21.9196 277.908 21.429 278.425 21.3047C278.431 21.3047 278.431 21.3047 278.431 21.3047Z" fill="#656263"/>
<path d="M388.771 168.669L388.433 165.444C388.406 165.136 388.53 164.835 388.778 164.639L391.388 162.546L388.054 161.852C387.737 161.787 387.476 161.578 387.352 161.296L386.064 158.294L384.342 161.087C384.176 161.355 383.894 161.525 383.57 161.545L380.167 161.78L382.434 164.207C382.647 164.436 382.73 164.75 382.654 165.045L381.841 168.191L384.962 166.896C385.258 166.772 385.602 166.798 385.878 166.955L388.771 168.669ZM394.488 161.813C394.577 162.16 394.453 162.52 394.171 162.749L390.438 165.745L390.92 170.363C390.954 170.716 390.782 171.057 390.465 171.246C390.148 171.429 389.749 171.429 389.432 171.246L385.278 168.8L380.808 170.657C380.464 170.801 380.071 170.749 379.782 170.52C379.499 170.291 379.368 169.925 379.458 169.585L380.629 165.077L377.385 161.61C377.13 161.349 377.061 160.969 377.206 160.642C377.343 160.315 377.667 160.086 378.039 160.067L382.909 159.726L385.375 155.723C385.568 155.415 385.919 155.239 386.291 155.265C386.663 155.291 386.994 155.514 387.131 155.841L388.977 160.138L393.744 161.126C394.109 161.205 394.398 161.473 394.488 161.813Z" fill="#656263"/>
<path d="M358.932 90.7445L358.394 85.5962C358.367 85.2953 358.491 84.9944 358.739 84.7916L362.899 81.4553L357.582 80.3498C357.265 80.2844 357.003 80.075 356.879 79.7872L354.826 74.9987L352.071 79.4601C351.913 79.7283 351.617 79.8984 351.3 79.918L345.865 80.2974L349.488 84.1636C349.702 84.3925 349.784 84.7065 349.702 85.0074L348.407 90.0314L353.394 87.9577C353.69 87.8334 354.034 87.8596 354.303 88.0166L358.932 90.7445ZM365.999 80.7226C366.088 81.0694 365.964 81.4292 365.682 81.6581L360.399 85.9037L361.081 92.4388C361.115 92.792 360.943 93.1387 360.626 93.3219C360.309 93.5116 359.903 93.5116 359.586 93.3284L353.711 89.8614L347.374 92.4977C347.029 92.635 346.637 92.5827 346.347 92.3537C346.065 92.1248 345.941 91.765 346.03 91.4183L347.677 85.0402L343.082 80.1274C342.834 79.8591 342.766 79.4863 342.903 79.1592C343.041 78.8256 343.372 78.6031 343.744 78.577L350.639 78.0994L354.138 72.4278C354.324 72.1204 354.682 71.9437 355.054 71.9699C355.426 71.9961 355.749 72.2185 355.887 72.5456L358.505 78.6293L365.262 80.0358C365.627 80.1143 365.909 80.3825 365.999 80.7226Z" fill="#656263"/>
<path d="M387.469 127.391C387.407 127.149 387.441 126.894 387.586 126.678L389.384 123.924L385.988 124.244C385.664 124.271 385.347 124.153 385.141 123.917L382.943 121.438L382.213 124.604C382.144 124.905 381.924 125.154 381.628 125.271L378.466 126.495L381.407 128.13C381.69 128.287 381.869 128.562 381.89 128.869L382.144 132.101L384.693 129.949C384.934 129.739 385.265 129.667 385.575 129.739L388.888 130.511L387.517 127.541C387.496 127.496 387.483 127.443 387.469 127.391ZM392.215 122.589C392.277 122.825 392.235 123.086 392.098 123.302L389.521 127.24L391.485 131.493C391.629 131.82 391.574 132.192 391.333 132.467C391.092 132.735 390.713 132.853 390.348 132.768L385.609 131.663L381.958 134.744C381.683 134.979 381.283 135.045 380.939 134.914C380.595 134.776 380.36 134.469 380.333 134.116L379.975 129.491L375.759 127.149C375.442 126.966 375.249 126.632 375.277 126.279C375.305 125.926 375.539 125.612 375.883 125.481L380.409 123.728L381.449 119.194C381.531 118.854 381.807 118.579 382.172 118.494C382.537 118.409 382.916 118.527 383.157 118.795L386.305 122.341L391.168 121.883C391.54 121.85 391.898 122.02 392.098 122.321C392.153 122.4 392.187 122.491 392.215 122.589Z" fill="#656263"/>
<path d="M342.883 143.621C342.828 143.431 342.848 143.228 342.931 143.039L346.086 135.908L338.206 137.864C337.896 137.943 337.565 137.871 337.317 137.668L331.159 132.611L330.684 140.337C330.663 140.638 330.491 140.919 330.216 141.076L323.252 145.08L330.829 147.899C331.132 148.01 331.359 148.265 331.428 148.553L333.288 156.083L338.447 150.104C338.653 149.868 338.963 149.737 339.287 149.763L347.401 150.418L343.007 143.902C342.945 143.817 342.903 143.719 342.883 143.621ZM348.71 134.305C348.758 134.502 348.744 134.704 348.662 134.894L344.935 143.313L350.122 151C350.322 151.301 350.329 151.68 350.136 151.981C349.943 152.288 349.585 152.459 349.213 152.432L339.638 151.66L333.542 158.725C333.308 159 332.929 159.118 332.564 159.039C332.199 158.961 331.91 158.693 331.834 158.346L329.637 149.456L320.689 146.126C320.338 146.002 320.097 145.694 320.063 145.341C320.035 144.988 320.214 144.648 320.531 144.465L328.755 139.735L329.313 130.622C329.341 130.269 329.568 129.955 329.913 129.818C330.257 129.68 330.656 129.739 330.939 129.968L338.213 135.941L347.387 133.658C347.429 133.645 347.477 133.632 347.518 133.619C348.049 133.494 348.565 133.808 348.71 134.305Z" fill="#656263"/>
<path d="M34.4026 4.61037L36.1866 1.54233C36.345 1.27412 36.6274 1.0975 36.9443 1.06479L40.6225 0.72462L38.1015 -1.83317C37.8811 -2.06213 37.7915 -2.36959 37.8604 -2.6705L38.6525 -6.09834L35.3118 -4.61338C35.0225 -4.48255 34.6781 -4.49563 34.4026 -4.65263L31.2204 -6.42542L31.6681 -2.94525C31.7094 -2.6378 31.5923 -2.33688 31.3512 -2.13409L28.5891 0.194745L32.2122 0.861995C32.5291 0.914328 32.7977 1.11712 32.9217 1.39841L34.4026 4.61037ZM43.6119 1.79745C43.481 2.12454 43.1573 2.36004 42.7922 2.39274L37.6538 2.87683L35.1534 7.16816C34.9743 7.47562 34.623 7.65878 34.2511 7.6457C33.8791 7.63262 33.5485 7.4102 33.397 7.08966L31.3306 2.59554L26.2679 1.66662C25.8959 1.6012 25.6066 1.33954 25.5033 0.99937C25.4069 0.652662 25.524 0.29287 25.7995 0.0573703L29.6637 -3.20038L29.0231 -8.06738C28.9817 -8.42063 29.1471 -8.76734 29.4639 -8.96359C29.7739 -9.15329 30.1734 -9.16638 30.4971 -8.98321L34.9468 -6.50392L39.6237 -8.58417C39.9612 -8.73463 40.3608 -8.68884 40.6501 -8.46642C40.9393 -8.244 41.0771 -7.88421 40.9945 -7.5375L39.8855 -2.749L43.4121 0.829287C43.667 1.09095 43.7428 1.46383 43.6119 1.79745Z" fill="#656263"/>
<path d="M6.13416 41.1783C6.2237 40.9493 6.40968 40.7596 6.65765 40.655L7.79417 40.184L6.70586 39.6083C6.42345 39.4644 6.23748 39.1896 6.20993 38.8887L6.08594 37.7112L5.17672 38.5158C4.93564 38.7252 4.61191 38.8102 4.29506 38.7448L3.07588 38.4897L3.60626 39.5625C3.74402 39.8438 3.73024 40.1643 3.56493 40.426L2.93123 41.4465L4.17107 41.3026C4.48792 41.2633 4.80477 41.3811 5.02519 41.61L5.85175 42.4932L6.08594 41.3353C6.09972 41.283 6.11349 41.2306 6.13416 41.1783ZM10.9282 40.6092C10.8387 40.8381 10.6458 41.0278 10.4047 41.1325L7.91127 42.1661L7.39467 44.6977C7.32579 45.051 7.05027 45.3322 6.69209 45.4238C6.33391 45.5154 5.94818 45.4107 5.70021 45.1425L3.89555 43.2127L1.20234 43.5333C0.830383 43.5725 0.465316 43.4155 0.258676 43.1212C0.0589242 42.8202 0.0451477 42.4408 0.238012 42.1334L1.60873 39.9092L0.458429 37.5673C0.300004 37.2533 0.348222 36.8739 0.582413 36.5926C0.816607 36.3178 1.19545 36.1935 1.56051 36.2655L4.2124 36.8215L6.19615 35.0618C6.47167 34.8133 6.86429 34.7413 7.21558 34.8656C7.55998 34.9899 7.80795 35.2973 7.84239 35.6506L8.11102 38.2149L10.4874 39.4644C10.8111 39.6345 11.004 39.9681 10.9902 40.3213C10.9833 40.4195 10.9627 40.5176 10.9282 40.6092Z" fill="#656263"/>
<path d="M134.74 6.95884L139.466 8.92134C139.879 9.09142 140.175 9.44468 140.258 9.86988L141.236 14.6976L144.659 11.0081C144.962 10.6876 145.41 10.5306 145.858 10.5764L150.975 11.1782L148.365 6.93922C148.138 6.56634 148.117 6.11497 148.31 5.72247L150.493 1.26105L145.458 2.32734C145.017 2.41892 144.556 2.30118 144.225 2.0068L140.464 -1.34907L139.955 3.55063C139.913 3.98238 139.652 4.3618 139.252 4.57113L134.74 6.95884ZM140.051 18.8058C139.548 18.6815 139.169 18.2825 139.066 17.7984L137.702 11.0408L131.097 8.29988C130.621 8.10363 130.305 7.6588 130.277 7.16163C130.256 6.66447 130.525 6.20001 130.986 5.95797L137.303 2.61518L138.012 -4.23395C138.06 -4.73112 138.405 -5.15632 138.894 -5.33295C139.376 -5.50958 139.927 -5.40491 140.313 -5.06474L145.575 -0.374367L152.622 -1.86587C153.131 -1.97053 153.662 -1.79391 153.986 -1.40795C154.309 -1.02199 154.378 -0.492116 154.158 -0.0407415L151.093 6.20001L154.743 12.1333C155.005 12.5585 154.991 13.0949 154.702 13.5136C154.413 13.9257 153.903 14.1481 153.386 14.0893L146.23 13.2585L141.436 18.4133C141.091 18.7862 140.554 18.9366 140.051 18.8058Z" fill="#656263"/>
</g>
<defs>
<clipPath id="clip0">
<rect width="391" height="241" fill="white"/>
</clipPath>
</defs>
</svg>
