<svg width="143" height="144" viewBox="0 0 143 144" fill="none" xmlns="http://www.w3.org/2000/svg">
<path d="M76.4338 8.46036C78.234 11.0305 79.6987 13.779 80.9609 16.5732C82.6493 20.3369 84.2311 24.6082 84.9448 28.5915C84.8969 28.6097 84.8489 28.628 84.8063 28.6509C81.0302 30.8232 76.5403 32.0442 72.0239 32.3643C67.9228 32.6524 63.3637 31.9619 60.5835 29.2912C60.8712 27.4482 61.3239 25.6235 61.9097 23.6844C63.1347 19.6143 64.8231 15.6311 66.9588 11.8491C68.0027 9.9878 69.1957 8.19054 70.5485 6.48475C71.1717 5.69817 72.0878 4.94359 72.8015 4.125C73.0678 4.39481 73.3607 4.66463 73.6483 4.96646C74.6869 6.05487 75.5816 7.25304 76.4338 8.46036ZM60.6262 69.0915C60.6421 69.2149 60.6954 69.3201 60.7646 69.4024C60.0669 69.9787 59.3852 70.5732 58.7035 71.154C57.585 72.1006 56.4079 73.0198 55.3747 74.0351C54.4639 74.9268 53.7343 75.9283 52.9567 76.907C52.9567 76.8293 52.9567 76.7561 52.9141 76.6783C52.8075 76.4908 52.6904 76.3308 52.5359 76.1707C52.3655 75.9832 52.1897 75.8369 51.9927 75.7134C52.1844 75.6814 52.3761 75.6677 52.5306 75.5762C52.9886 75.2927 53.42 74.9954 53.8461 74.6799C54.8794 73.9207 55.8434 73.0793 56.8127 72.2607C58.1176 71.154 59.3852 70.0564 60.5995 68.8994C60.6102 68.9634 60.6155 69.0274 60.6262 69.0915ZM51.7583 79.9573C51.7317 81.1966 51.7264 82.4314 51.7264 83.6662C51.7264 86.1265 51.7264 88.5869 51.7317 91.0472C51.7317 95.2637 51.7849 99.4756 52.0246 103.687C51.9181 103.422 51.8222 103.152 51.753 102.873C51.3855 101.428 51.2896 99.9375 51.2257 98.4649C51.1032 95.5747 51.3109 92.6844 51.1725 89.7942C51.0446 87.2378 50.5067 84.7043 50.3682 82.1433C50.2937 80.8033 50.3096 79.4451 50.56 78.1189C50.6718 77.5198 50.8635 76.9344 51.1618 76.3857C51.2843 76.5366 51.4281 76.6738 51.6145 76.8018C51.7849 76.9207 51.9501 77.0396 52.1418 77.1265C51.721 78.0366 51.7796 78.9787 51.7583 79.9573ZM66.9055 87.032C67.0813 87.1875 67.2677 87.3384 67.4701 87.4847C67.9122 87.8003 68.4022 88.1707 68.9667 88.2942C68.9667 88.3719 68.9614 88.4497 68.9614 88.5229C68.8921 88.4954 68.8229 88.468 68.7643 88.436C68.3223 88.2256 67.9335 87.9649 67.5713 87.6585C67.273 87.407 66.8097 87.8049 67.1133 88.0564C67.4861 88.3582 67.8855 88.6189 68.3223 88.8476C68.5087 88.9436 68.727 89.0716 68.9507 89.1448C68.9614 89.4101 68.9827 89.657 69.0253 89.8994C68.3169 89.6433 67.5979 89.378 66.9109 89.3735C66.9162 88.596 66.9109 87.814 66.9055 87.032ZM66.8842 85.4085C66.8896 85.4131 66.8896 85.4177 66.9002 85.4222C67.6246 85.7469 68.0879 86.25 68.5886 86.7896C68.6738 86.8857 68.8655 86.7851 68.8229 86.6753C68.5673 85.9847 67.8323 85.4314 67.1079 85.0976C67.0227 85.0564 66.9375 85.0747 66.8789 85.1158C66.8736 84.9649 66.8736 84.8094 66.8683 84.6585C67.4168 85.1936 68.1412 85.5777 69.02 85.6326C69.0253 85.6326 69.036 85.6326 69.0413 85.628C69.0413 85.8201 69.036 86.0122 69.0306 86.1997C69.0146 86.7576 68.9987 87.3201 68.9827 87.878C68.6525 87.5945 68.2264 87.4024 67.8536 87.1555C67.5127 86.9314 67.1931 86.6799 66.9002 86.4101C66.8949 86.2637 66.8949 86.1219 66.8949 85.9756C66.8896 85.7881 66.8842 85.6006 66.8842 85.4085ZM69.1158 83.2088C69.0892 83.4558 69.0679 83.7073 69.0573 83.9634C68.7004 83.6616 68.2956 83.3963 67.9388 83.1037C67.5074 82.7469 67.1133 82.3674 66.7617 81.9558C66.7404 81.6265 66.7245 81.3018 66.7032 80.9726C67.4328 81.782 68.269 82.5503 69.1158 83.2088ZM69.1798 82.7744C68.498 81.8872 67.4808 81.1509 66.6126 80.346C66.5114 79.9253 66.3463 79.5091 66.2504 79.0884C66.9695 80.2088 68.0719 81.5305 69.3182 81.9055C69.3555 81.9146 69.3875 81.9055 69.4141 81.8872C69.3076 82.1753 69.233 82.4726 69.1798 82.7744ZM69.0413 85.468C68.1359 85.1387 67.3902 84.7317 66.8523 84.1418C66.8363 83.6341 66.8203 83.1265 66.7937 82.6189C67.4222 83.3415 68.1998 84.0183 69.0466 84.3841C69.036 84.75 69.0413 85.1113 69.0413 85.468ZM76.7587 91.2576C76.8439 91.2759 76.9291 91.2896 77.0143 91.3033C76.2261 91.6921 75.4112 92.0396 74.5803 92.3506C72.2848 93.2104 69.3395 93.9238 67.2464 92.3049C67.7471 92.3689 68.2104 92.3597 68.5992 92.1357C68.6205 92.1265 68.6472 92.1128 68.6738 92.1036C68.9081 92.0076 69.0573 91.8338 69.1371 91.6418C69.7603 91.8338 70.3728 91.9665 70.8148 92.0579C72.9133 92.4832 75.0011 92.2729 76.7587 91.2576ZM75.1343 89.1402C75.2674 89.2454 75.4006 89.346 75.539 89.4375C75.3846 89.5472 75.2248 89.6433 75.0544 89.7302C75.0863 89.5335 75.113 89.3369 75.1343 89.1402ZM75.2301 86.0716C75.9225 86.6296 76.7534 87.2286 77.6375 87.5396C77.6268 87.7408 77.6215 87.9375 77.6268 88.1296C77.5629 88.093 77.4937 88.0564 77.4244 88.0198C76.9185 87.7363 76.4498 87.4162 76.0237 87.0549C75.6615 86.753 75.113 87.2241 75.4698 87.5259C75.8639 87.8506 76.29 88.1341 76.7374 88.4085C77.0463 88.596 77.3552 88.7972 77.7121 88.8704C77.7547 89.0899 77.8132 89.3003 77.8931 89.5107C78.0103 89.8216 78.2713 89.9863 78.5642 90.0412C78.5163 90.0823 78.4683 90.1235 78.4204 90.1601C78.25 90.3018 78.234 90.471 78.3032 90.6082C78.25 90.6448 78.1914 90.6814 78.1381 90.7134C78.0795 90.7454 78.0156 90.7774 77.957 90.8094C77.8132 90.7729 77.6641 90.7454 77.5097 90.7271C77.6109 90.6174 77.6694 90.4985 77.6961 90.3796C77.7387 90.3796 77.7813 90.3796 77.8292 90.3704C78.0156 90.3384 78.0369 90.1463 77.9304 90.0366C77.8346 89.936 77.7014 89.8537 77.5576 89.7805C77.3019 89.4055 76.7693 89.1357 76.2208 89.186C75.8905 88.9939 75.5816 88.779 75.294 88.5457C75.2621 88.5183 75.2248 88.5 75.1875 88.4863C75.2035 88.2347 75.2141 87.9787 75.2195 87.7226C75.2248 87.1692 75.2248 86.6204 75.2301 86.0716ZM82.0847 90.471C82.1114 90.343 82.1167 90.2241 82.1114 90.1143C82.1273 90.128 82.1433 90.1463 82.1646 90.1646C82.1114 90.439 82.0634 90.7226 82.0155 91.0061C82.0261 90.8232 82.0474 90.6494 82.0847 90.471ZM66.7937 92.3094C66.799 92.282 66.799 92.2546 66.799 92.2271C66.831 92.2363 66.8576 92.2408 66.8896 92.2454C66.8523 92.2591 66.8203 92.282 66.7937 92.3094ZM73.5737 1.59146C73.398 1.44512 73.1636 1.34908 72.9346 1.3628C72.86 1.36737 72.7908 1.37652 72.7216 1.38109C72.6683 1.37652 72.615 1.36737 72.5618 1.3628C72.3541 1.34908 72.1464 1.42682 71.9759 1.5503C71.0918 1.86128 70.5219 2.51524 69.8402 3.22865C68.8069 4.31707 67.8802 5.47408 67.0227 6.66768C65.2119 9.16463 63.7472 11.8537 62.4743 14.5793C60.2001 19.4451 58.4957 24.5671 57.7394 29.7805C57.2814 32.9497 57.569 36.2378 57.7448 39.4116C57.9951 43.9756 58.3892 48.5305 58.8419 53.0808C59.316 57.8049 59.7367 62.5381 60.3652 67.2485C58.8153 68.3918 57.3666 69.6037 55.9179 70.8658C54.9593 71.7027 54.0059 72.5396 53.0792 73.4085C52.6957 73.7652 52.3016 74.1219 51.9767 74.5198C51.8755 74.6433 51.8116 74.7576 51.7583 74.8719C51.6624 74.8079 51.54 74.7805 51.4228 74.8079C49.1379 75.4024 49.1912 79.3216 49.1805 80.8902C49.1592 83.7027 49.6918 86.4832 49.9368 89.282C50.2084 92.3277 49.809 95.4146 49.8995 98.4649C49.9421 100.043 50.0966 101.616 50.4481 103.166C50.6931 104.259 51.1085 105.924 52.1791 106.66C52.5839 106.939 53.2603 106.706 53.1324 106.221C54.3095 105.787 55.3214 104.973 56.2535 104.255C57.5424 103.267 58.7833 102.233 60.035 101.209C62.3678 99.2927 65.329 97.3811 66.6392 94.8018C66.7617 94.564 66.7298 94.3308 66.5966 94.1616C66.6712 93.6494 66.7298 93.1326 66.7724 92.6204C66.783 92.6341 66.7884 92.6479 66.799 92.6616C68.6152 94.4863 71.4433 94.2576 73.9252 93.8094C75.4112 93.5396 76.8546 92.9634 78.2074 92.3872C78.6228 92.2088 79.1128 92.0213 79.6028 91.8064C79.5975 92.2317 79.5762 92.657 79.5762 93.0686C79.5815 93.8643 79.8425 94.596 80.1088 95.346C80.0715 95.6433 80.1833 95.9451 80.5295 96.1875C83.5547 98.2911 86.1005 100.784 89.2482 102.768C89.7276 103.07 90.4306 102.466 90.0791 102.055C88.6357 100.363 86.9527 98.8719 85.3016 97.3582C86.0153 97.9207 86.761 98.4604 87.4321 99.0046C88.3375 99.7454 89.2376 100.486 90.1537 101.218C90.7981 101.735 91.336 102.22 92.2415 102.261C92.3853 102.27 92.5184 102.151 92.5131 102.027C92.4651 101.245 91.8846 100.806 91.2987 100.235C90.4679 99.4344 89.5784 98.6753 88.721 97.8979C87.9487 97.1982 87.1924 96.4116 86.3828 95.6844C86.5266 92.8628 86.5533 90.0411 86.5479 87.2195C86.5479 85.7058 86.5426 84.1921 86.5373 82.6783C86.5373 81.4162 86.8515 79.7835 86.2071 78.6174C86.1858 78.5854 86.1218 78.5854 86.1059 78.6174C85.52 79.6783 85.797 81.0777 85.781 82.2256C85.7703 83.7347 85.7863 85.2485 85.7863 86.7622C85.7863 89.6158 85.8183 92.4649 85.9621 95.314C85.2111 94.6783 84.4015 94.1113 83.4908 93.7134C83.4109 93.6814 83.331 93.6631 83.2511 93.6494C83.2085 92.5427 83.0221 91.4222 82.8197 90.3658C83.2778 90.3613 83.7251 90.1097 83.7251 89.6067C83.7145 87.1783 83.8476 84.7454 83.9329 82.3216C83.9808 81.0137 83.9009 79.7332 83.8849 78.4299C83.8689 77.154 84.1672 75.8735 83.9861 74.5976C83.9595 74.4283 83.6666 74.3643 83.6133 74.5564C83.2937 75.6677 83.2724 76.8613 83.1446 78C83.0061 79.2988 82.612 80.5793 82.4362 81.8826C82.106 84.3933 81.9303 86.904 81.8983 89.4283C81.7918 89.0991 81.3764 88.7652 80.9503 88.811C80.7532 88.8293 80.5562 88.8521 80.3538 88.875C80.0981 88.907 79.901 89.0579 79.7572 89.2408C79.7413 89.25 79.7253 89.2591 79.7093 89.2683C79.6987 89.218 79.6827 89.1677 79.6561 89.1174C79.1874 88.1113 78.9743 87.0594 78.8571 85.9985C78.9477 85.9573 78.9796 85.8476 78.937 85.7698C78.8998 85.7104 78.8625 85.6555 78.8199 85.6006C78.7666 85.0107 78.74 84.4207 78.7133 83.8308C78.7027 83.5152 78.1648 83.5152 78.1488 83.8262C78.1275 84.2012 78.0742 84.5899 78.0103 84.9787C77.8665 84.8872 77.7174 84.8003 77.5896 84.7088C77.041 84.3155 76.4924 83.9268 75.9065 83.5793C75.555 83.3735 75.2301 83.8674 75.5763 84.0732C76.1888 84.4344 76.7534 84.846 77.3233 85.253C77.5097 85.3857 77.6961 85.5366 77.8931 85.6692C77.8186 86.0854 77.744 86.5061 77.6961 86.9222C77.4724 86.8079 77.2434 86.6982 77.025 86.5747C76.3965 86.2271 75.832 85.811 75.2994 85.3628C75.2674 85.3399 75.2408 85.3262 75.2088 85.3125C75.1769 84.6814 75.1662 83.9954 75.5603 83.5244C75.7787 83.2546 75.8053 82.9482 75.6988 82.6692C75.8692 82.7652 76.0397 82.8658 76.2101 82.9665C76.7001 83.2454 77.1581 83.5976 77.76 83.6524C77.8612 83.6616 77.9144 83.5518 77.8718 83.4832C77.6215 83.0854 77.1741 82.8887 76.7427 82.6463C76.1196 82.2896 75.5018 81.9375 74.8786 81.5808C74.6496 81.4527 74.4472 81.6357 74.4472 81.8186C74.4312 81.814 74.4152 81.814 74.3939 81.814C73.4725 81.814 72.6363 82.8018 73.2382 83.5244C73.9466 84.3796 73.5684 86.2637 73.5844 87.2881C73.595 88.2668 73.6643 89.2317 73.8347 90.1966C72.7908 90.4665 71.6457 90.4939 70.5858 90.3476C70.5006 90.3384 70.4154 90.3201 70.3302 90.3064C70.4207 89.9588 70.49 89.6158 70.474 89.25C70.4314 88.3765 70.3994 87.5076 70.3728 86.6341C70.3195 85.061 70.5166 83.25 69.9094 81.75C69.8349 81.5579 69.5419 81.5579 69.4674 81.75C69.462 81.75 69.462 81.75 69.462 81.75V81.7454C69.036 81.1829 68.3329 80.7668 67.8056 80.2637C67.1718 79.6601 66.6179 78.9832 66.1546 78.2835C66.1333 77.9177 66.1173 77.5518 66.1013 77.186C66.5008 77.6616 66.9481 78.0869 67.4222 78.5213C68.0773 79.1204 68.6099 79.8338 69.2916 80.4009C69.3502 80.4512 69.4407 80.4055 69.4248 80.3369C69.2756 79.6875 68.6685 79.1982 68.1625 78.7226C67.4861 78.0869 66.7671 77.4832 66.0853 76.8476C66.0694 76.5732 66.0587 76.2988 66.0427 76.0244C66.0427 75.9512 65.9202 75.9512 65.9202 76.0244C65.867 77.1814 65.7818 78.2927 65.5847 79.4131C65.5368 79.436 65.5154 79.4817 65.5527 79.5366C65.5527 79.5366 65.5581 79.5412 65.5581 79.5457C65.4888 79.9253 65.4036 80.3094 65.3077 80.6936C64.9136 82.221 65.116 84.0229 65.1053 85.5823C65.0787 88.4314 65.0201 91.2302 65.4036 94.0564C64.2638 94.5183 63.2306 95.1814 62.2666 95.9405L62.2719 95.936C62.5435 93.2698 62.5009 90.6174 62.4903 87.9421C62.4849 86.5747 62.4796 85.2073 62.4743 83.8445C62.4743 82.7927 62.6927 81.5076 62.1281 80.5518C62.0589 80.4375 61.8458 80.4375 61.7819 80.5518C61.2173 81.5076 61.441 82.7927 61.441 83.8445C61.441 85.2073 61.441 86.5747 61.441 87.9421C61.441 90.6128 61.4038 93.2652 61.6807 95.936C61.702 96.096 61.8352 96.1738 61.9736 96.1783C61.244 96.7729 60.5516 97.4131 59.8752 98.0533C60.1095 95.3232 60.1095 92.5976 60.1149 89.8582C60.1149 88.3811 60.1202 86.904 60.1202 85.4268C60.1255 84.5442 60.5037 82.9573 59.6408 82.3354C59.6195 82.3171 59.5929 82.3171 59.5663 82.3354C58.7727 82.907 59.1029 84.1692 59.0923 84.9832C59.0763 86.4604 59.1082 87.9375 59.1136 89.4146C59.1295 92.3597 59.1189 95.3003 59.3958 98.2408C59.4012 98.3186 59.4491 98.3689 59.5077 98.4009C59.0656 98.8216 58.6236 99.2332 58.1868 99.6265C57.9099 99.878 57.6276 100.13 57.3453 100.381C57.5371 97.6143 57.4891 94.8384 57.4625 92.0625C57.4465 90.4116 57.4305 88.7652 57.4199 87.1189C57.4039 85.7012 57.7181 83.9451 57.1376 82.6006C57.0577 82.4085 56.7754 82.4085 56.6902 82.6006C56.115 83.9451 56.4346 85.6966 56.4239 87.1189C56.4133 88.7652 56.4079 90.4116 56.3973 92.0579C56.3813 95.0625 56.3334 98.0671 56.5944 101.062C55.9339 101.657 55.2841 102.256 54.645 102.869C54.1231 103.372 53.5585 103.898 53.0845 104.47C53.3455 100.152 53.3934 95.8308 53.3828 91.5091C53.3774 89.0488 53.3721 86.593 53.3668 84.1326C53.3668 82.8979 53.3668 81.6585 53.3348 80.4238C53.3188 79.628 53.3615 78.8232 53.223 78.0457C54.4054 77.3186 55.6516 76.6738 56.7914 75.8963C58.0217 75.0549 59.0763 74.0122 60.1788 73.0564C61.2866 72.0915 62.3837 71.1219 63.4649 70.1341C63.8218 69.8094 64.1839 69.4756 64.5248 69.128C64.4396 69.4893 64.3544 69.8552 64.3277 70.221C64.2905 70.7744 64.365 71.378 64.5568 71.9085C64.7378 72.4116 64.6899 72.9146 65.0734 73.3308C65.1799 73.4451 65.4356 73.4451 65.5368 73.3308C65.867 72.9787 65.8563 72.6219 65.9522 72.1829C65.9841 72.0274 66.0267 71.8765 66.064 71.7256C66.8363 73.4177 68.4767 74.9634 70.3355 75.5076C70.4101 75.5305 70.4473 75.4344 70.3834 75.3979C68.6472 74.4832 66.9801 73.0015 66.1652 71.3003C66.2451 70.9527 66.2984 70.6052 66.2717 70.2256C66.2345 69.6905 66.064 69.1418 65.9522 68.6113C65.8776 68.2317 65.819 67.8613 65.7338 67.4954C65.835 67.2942 65.9202 67.0838 65.9788 66.8643C66.0427 66.6357 65.8031 66.4344 65.5421 66.4893C64.168 66.7683 63.172 67.5686 62.1174 68.3369C62.0695 68.3735 62.0269 68.4101 61.9736 68.4466C62.0109 68.1128 62.0376 67.7835 62.0535 67.4497C62.1547 67.3445 62.2559 67.2439 62.3518 67.1387C62.6713 66.7957 62.453 66.407 62.0908 66.311C62.1068 64.2622 61.9044 62.1997 61.7606 60.1692C61.441 55.6646 61.1321 51.1555 60.8072 46.6509C60.509 42.4893 60.232 38.3186 60.2161 34.1433C60.2107 32.9405 60.2746 31.7835 60.4025 30.6448C66.3623 36.5076 78.1009 34.8933 85.259 30.9329C85.552 34.2348 85.2857 37.6006 85.0939 40.8933C84.8223 45.4619 84.4388 50.0259 84.0926 54.5854C83.8636 57.5351 83.6293 60.4847 83.4482 63.4344C83.3363 65.3369 83.2192 67.2165 83.4855 69.1143C83.5813 69.8232 84.6625 69.8232 84.7637 69.1143C84.833 68.6341 84.9022 68.1494 84.9661 67.6646C85.8662 68.9771 86.8888 70.093 88.1138 71.25C88.902 71.9954 89.685 72.7408 90.5052 73.4588C91.1336 74.0076 91.6769 74.5701 92.4651 74.8582C92.2787 76.6692 91.8846 78.4436 91.7994 80.282C91.7035 82.4726 91.7302 84.6677 91.7195 86.8628C91.7035 90.814 91.3786 94.9847 92.3213 98.8719C92.2574 98.9131 92.2042 98.9726 92.1775 99.0503C92.1775 99.0549 92.1722 99.0549 92.1722 99.0549C92.0923 99.1235 92.0284 99.2104 92.0018 99.3018C91.9911 99.3247 91.9805 99.3521 91.9752 99.375C91.9645 99.3887 91.9538 99.3979 91.9432 99.4116C91.8953 99.4893 91.874 99.5671 91.8473 99.6494L91.8367 99.6722C91.6929 99.8689 91.7248 100.166 91.8527 100.358C91.9965 100.578 92.2787 100.72 92.5717 100.72C92.8699 100.72 93.1469 100.582 93.296 100.358C93.4238 100.171 93.4558 99.8735 93.3067 99.6768C93.296 99.6402 93.28 99.5991 93.2694 99.5625C93.2481 99.5122 93.2214 99.4619 93.2001 99.4116C93.1895 99.3979 93.1788 99.3887 93.1682 99.3796C93.1629 99.3521 93.1522 99.3247 93.1416 99.3018C93.3013 99.2515 93.4238 99.1418 93.4664 98.9817C94.4358 95.0625 94.0896 90.8552 94.0576 86.8674C94.0416 84.6722 94.063 82.4771 93.9618 80.282C93.8765 78.4985 93.4931 76.7698 93.296 75.0046C93.77 74.9543 94.1056 74.5884 93.999 74.1402C93.6315 72.5488 91.3307 71.2729 89.9992 70.2302C88.412 68.9908 86.9048 67.9344 85.0513 67.0472C85.9727 60.3293 86.6545 53.5747 87.2403 46.8338C87.5972 42.6768 87.938 38.5107 88.0126 34.3399C88.0765 30.8369 87.5439 27.5076 86.6065 24.0915C85.3602 19.5823 83.5281 15.1738 81.2113 10.9848C80.1194 9.00914 78.8678 7.09756 77.4351 5.28201C76.4711 4.06097 75.2514 2.2317 73.5737 1.59146Z" fill="#FFF5F5"/>
<path d="M89.8181 98.2729C90.0578 95.1723 89.9619 92.0534 89.9672 88.9482C89.9672 87.3933 89.9779 85.8384 89.9566 84.2835C89.9353 82.907 90.1483 81.3842 89.6157 80.0671C89.5838 79.9848 89.4559 79.9848 89.424 80.0671C88.8914 81.3842 89.1097 82.907 89.0938 84.2835C89.0778 85.8384 89.0938 87.3933 89.0991 88.9482C89.1097 92.0534 89.0192 95.1723 89.2695 98.2729C89.2962 98.5747 89.7968 98.5747 89.8181 98.2729Z" fill="#FFF5F5"/>
<path d="M90.0738 77.6844C90.3614 77.4375 89.914 77.0534 89.6264 77.3003C89.3388 77.5473 89.7862 77.9268 90.0738 77.6844Z" fill="#FFF5F5"/>
<path d="M83.9648 74.0213C84.0128 73.6646 84.1512 73.3217 84.2098 72.9604C84.2737 72.5716 84.4069 72.1052 84.3057 71.7256C84.1885 71.282 83.3949 71.282 83.2778 71.7256C83.1872 72.0777 83.2991 72.4985 83.3577 72.8552C83.4269 73.2485 83.576 73.6326 83.6293 74.0213C83.6506 74.2088 83.9382 74.2088 83.9648 74.0213Z" fill="#FFF5F5"/>
<path d="M82.3563 77.1082C83.0807 76.628 82.138 75.5899 81.3817 76.0107C79.5548 77.0259 77.3392 77.4009 75.1981 77.6159C72.892 77.8445 70.2023 78.0457 68.0506 77.0991C67.9281 77.0488 67.8429 77.1905 67.9494 77.2591C69.7922 78.4482 72.2742 78.6814 74.543 78.7454C74.4365 78.8277 74.3886 78.9741 74.5271 79.0884C75.0171 79.5091 75.5124 79.9299 76.0343 80.3277C76.4072 80.6067 76.8705 81.0183 77.3712 81.0915C77.5203 81.1098 77.6588 80.9909 77.5736 80.8674C77.3126 80.4924 76.8066 80.2729 76.4285 79.9893C75.9065 79.6006 75.4218 79.1753 74.9372 78.7546C75.0224 78.7546 75.1129 78.7591 75.2035 78.7591C75.6242 78.7637 76.0663 78.7546 76.519 78.7317C76.5243 78.7317 76.5243 78.7363 76.5243 78.7363C76.7533 79.1021 77.0516 79.4177 77.3978 79.7058C77.6694 79.9253 78.0689 80.2683 78.463 80.2043C78.5695 80.186 78.5961 80.0854 78.5589 80.0122C78.4204 79.7424 77.9943 79.6006 77.744 79.404C77.4777 79.1982 77.2593 78.9558 77.0729 78.6906C78.9583 78.5213 80.9449 78.0412 82.3563 77.1082Z" fill="#FFF5F5"/>
<path d="M68.5886 89.6799C68.727 89.7896 68.9294 89.6204 68.7963 89.5015C68.6791 89.4009 68.546 89.314 68.4022 89.2363C68.301 89.1768 68.1944 89.1311 68.1891 89.0122C68.1838 88.8201 67.827 88.8247 67.8429 89.0122C67.8749 89.3872 68.3063 89.4604 68.5886 89.6799Z" fill="#FFF5F5"/>
<path d="M74.1809 80.2546C74.82 80.7942 75.5017 81.2881 76.2101 81.7592C76.6735 82.0701 77.1581 82.4863 77.7547 82.5503C77.9091 82.5686 77.989 82.404 77.9251 82.3034C77.6481 81.8689 77.0303 81.6311 76.5776 81.3384C75.8852 80.8948 75.2248 80.4101 74.6016 79.8887C74.3247 79.6601 73.9039 80.0213 74.1809 80.2546Z" fill="#FFF5F5"/>
<path d="M62.5808 29.5107C62.5275 29.4787 62.4849 29.5427 62.5169 29.5793C63.1773 30.3018 64.1041 30.6585 65.0734 30.9878C66.0001 31.2988 67.2837 31.7652 68.2903 31.6463C68.3702 31.6372 68.3702 31.5412 68.3116 31.5137C67.6086 31.1433 66.6233 31.0838 65.835 30.8781C64.6686 30.5671 63.5928 30.0915 62.5808 29.5107Z" fill="#FFF5F5"/>
<path d="M64.855 29.5152C63.907 29.2546 63.1081 28.7332 62.3252 28.2256C62.1068 28.0838 61.9097 28.3765 62.0589 28.532C63.1667 29.6844 65.5368 30.7591 67.305 30.2652C67.4648 30.2195 67.4541 30.0457 67.2997 29.9954C66.5114 29.7439 65.6592 29.7347 64.855 29.5152Z" fill="#FFF5F5"/>
<path d="M65.3663 28.3582C64.7538 28.2256 64.1733 27.9787 63.63 27.7134C63.4702 27.6311 63.3477 27.8323 63.4916 27.9238C63.9922 28.2393 64.5088 28.4909 65.1 28.6601C65.5367 28.7881 66.1759 28.9482 66.6179 28.7973C66.7138 28.7652 66.7671 28.6326 66.6499 28.5869C66.2558 28.436 65.7871 28.4543 65.3663 28.3582Z" fill="#FFF5F5"/>
<path d="M64.0188 26.7668C63.7312 26.6479 63.4862 27.0137 63.7738 27.1372C64.5568 27.4756 65.3929 27.8323 66.2824 27.6357C66.4049 27.6082 66.3996 27.4573 66.2824 27.4253C65.4941 27.2287 64.7591 27.0823 64.0188 26.7668Z" fill="#FFF5F5"/>
<path d="M63.694 25.0976C63.4969 24.9649 63.2359 25.1753 63.417 25.3399C63.6354 25.5412 63.9123 25.6235 64.2106 25.7012C64.4023 25.7515 64.5887 25.7973 64.7751 25.8521C64.9669 25.907 65.0841 25.9893 65.2758 25.9299C65.3504 25.907 65.4196 25.8384 65.3876 25.7652C65.2758 25.5 64.8923 25.4543 64.6047 25.3811C64.3118 25.3079 63.9443 25.2622 63.694 25.0976Z" fill="#FFF5F5"/>
<path d="M64.5621 23.8902C64.2958 23.8948 64.3011 24.2378 64.5621 24.2424C64.8604 24.2469 65.1533 24.2469 65.4462 24.3018C65.7232 24.3521 66.0001 24.5259 66.2824 24.4802C66.3783 24.4619 66.4156 24.3613 66.3729 24.2927C66.2345 24.064 65.8297 23.9863 65.5581 23.936C65.2332 23.8765 64.8923 23.8857 64.5621 23.8902Z" fill="#FFF5F5"/>
<path d="M64.8977 22.2027C64.7325 22.2119 64.6793 22.4406 64.855 22.4634C65.0628 22.4863 65.2545 22.5823 65.4409 22.6555C65.606 22.7195 65.7924 22.7927 65.9629 22.7058C66.0374 22.6646 66.0268 22.5823 65.9575 22.5412C65.8137 22.4543 65.622 22.4131 65.4622 22.3399C65.2811 22.2576 65.1054 22.1936 64.8977 22.2027Z" fill="#FFF5F5"/>
<path d="M65.2332 21.032C65.0095 21.0457 65.0095 21.3156 65.2332 21.3293C65.4409 21.343 65.6486 21.3521 65.8563 21.375C66.096 21.407 66.3144 21.4985 66.5487 21.5671C66.6499 21.5945 66.7138 21.4939 66.6766 21.4207C66.4635 21 65.6753 21.0046 65.2332 21.032Z" fill="#FFF5F5"/>
<path d="M66.2398 19.6097C66.0481 19.6235 66.0481 19.8521 66.2398 19.8658C66.3836 19.875 66.5274 19.8887 66.6712 19.9253C66.8576 19.971 67.0068 20.0533 67.1878 20.1174C67.2944 20.1585 67.4062 20.0762 67.353 19.9756C67.1506 19.6097 66.6499 19.5823 66.2398 19.6097Z" fill="#FFF5F5"/>
<path d="M66.7138 18.128C66.4635 18.343 66.8523 18.6768 67.1026 18.4619C67.3476 18.2469 66.9641 17.9177 66.7138 18.128Z" fill="#FFF5F5"/>
<path d="M67.6725 15.2058C67.3689 15.471 67.8429 15.878 68.1519 15.6174C68.4554 15.3521 67.9814 14.9451 67.6725 15.2058Z" fill="#FFF5F5"/>
<path d="M68.301 13.436C67.9335 13.747 68.498 14.2317 68.8655 13.9207C69.2277 13.6098 68.6631 13.125 68.301 13.436Z" fill="#FFF5F5"/>
<path d="M69.2437 10.7881C68.8069 11.1677 69.4887 11.753 69.9307 11.378C70.3675 10.9985 69.6857 10.4131 69.2437 10.7881Z" fill="#FFF5F5"/>
<path d="M71.2889 8.21797C70.8841 8.56553 71.5126 9.10059 71.912 8.75761C72.3168 8.41004 71.6883 7.87498 71.2889 8.21797Z" fill="#FFF5F5"/>
<path d="M67.3423 46.3079C67.3529 46.2485 67.3636 46.1844 67.3742 46.125C67.3849 46.0518 67.4275 45.9786 67.4328 45.91C67.4382 45.75 67.4382 45.5899 67.4435 45.4299C67.4488 45.2469 67.1133 45.2469 67.1186 45.4299C67.1239 45.5716 67.1292 45.718 67.1346 45.8597C67.1346 45.9375 67.1719 46.0015 67.1825 46.0747C67.1985 46.1524 67.2091 46.2302 67.2251 46.3079C67.2304 46.3582 67.337 46.3628 67.3423 46.3079Z" fill="#FFF5F5"/>
<path d="M71.7416 43.9253C71.912 44.3003 72.3328 44.6113 72.9186 44.5427C74.0904 44.3963 75.3686 44.4924 75.6349 45.4985C75.832 46.2439 75.2941 47.3277 74.7881 47.8719C74.1223 48.5854 73.4832 48.814 72.5245 48.2881C70.9587 47.4329 70.5699 45.128 71.7416 43.9253ZM66.9854 46.8704C67.0121 48.5305 67.9388 49.9619 69.6644 50.7347C71.0226 51.3476 73.7974 51.6905 74.7881 50.3872C75.2035 50.2546 75.6189 50.0579 76.0237 49.7927C77.5949 48.75 78.3299 46.7561 77.8559 45.1189C77.3126 43.221 75.1822 42.6814 73.1849 42.7912C73.1636 42.5122 72.9027 42.2607 72.5139 42.375C71.0332 42.814 70.1598 43.9756 69.7656 45.2332C69.3129 46.6738 69.2011 47.9131 70.3302 49.1433C70.6657 49.5091 71.0386 49.8018 71.438 50.0305C71.2037 50.0076 70.9587 49.971 70.7083 49.907C69.1585 49.4954 67.6938 48.2927 67.5873 46.8704C67.5607 46.5457 66.9801 46.5366 66.9854 46.8704Z" fill="#FFF5F5"/>
<path d="M70.6018 52.532C71.0545 52.5915 71.5019 52.6143 71.96 52.6189C72.3488 52.6235 72.3488 52.1021 71.96 52.1021C71.5019 52.1067 71.0545 52.1296 70.6018 52.189C70.4048 52.2165 70.4048 52.5 70.6018 52.532Z" fill="#FFF5F5"/>
<path d="M73.888 52.596C73.9625 52.564 74.0211 52.5137 74.0903 52.4771C74.1915 52.4223 74.1915 52.3034 74.0903 52.2485C74.0211 52.2119 73.9625 52.1616 73.888 52.1296C73.7868 52.0884 73.6802 52.0976 73.5684 52.093C73.382 52.093 73.1956 52.093 73.0092 52.093C72.5991 52.0884 72.5991 52.6326 73.0092 52.6326C73.1956 52.6326 73.382 52.6326 73.5684 52.628C73.6802 52.628 73.7868 52.6372 73.888 52.596Z" fill="#FFF5F5"/>
<path d="M73.43 53.186C73.1424 53.2088 72.8814 53.2454 72.6044 53.2911C72.3434 53.3369 72.3434 53.689 72.6044 53.7393C72.8654 53.785 73.1104 53.8216 73.3714 53.8399C73.5418 53.8536 73.7335 53.8811 73.8933 53.8079C73.9892 53.7667 74.0744 53.6982 74.1596 53.6387C74.2395 53.5838 74.2395 53.4512 74.1596 53.3963C74.0851 53.346 74.0105 53.2774 73.9306 53.2408C73.7655 53.1677 73.6057 53.1722 73.43 53.186Z" fill="#FFF5F5"/>
<path d="M68.3542 59.0625C68.4767 58.9893 68.5406 58.7652 68.5673 58.6463C68.6205 58.4222 68.6472 58.1799 68.8336 58.0015C69.0679 57.7866 68.6844 57.4573 68.4554 57.6768C68.2371 57.8872 68.1305 58.1433 68.0879 58.4177C68.056 58.5915 68.0773 58.9527 68.269 59.0625C68.2903 59.0762 68.3329 59.0762 68.3542 59.0625Z" fill="#FFF5F5"/>
<path d="M71.7629 57.2012C71.928 57.5762 72.3541 57.8872 72.9346 57.8186C74.1117 57.6768 75.3899 57.7683 75.6509 58.7744C75.848 59.5244 75.31 60.6037 74.8041 61.1479C74.1436 61.8613 73.5045 62.0899 72.5458 61.564C70.98 60.7088 70.5912 58.4085 71.7629 57.2012ZM68.024 59.7942C67.779 60.9558 68.1838 61.8979 69.1425 62.7302C69.8828 63.3796 71.4007 64.157 72.4606 63.782C72.4819 63.7729 72.5032 63.7591 72.5192 63.7408C73.6643 64.029 74.9106 63.8232 76.0397 63.0686C77.6109 62.0305 78.3459 60.032 77.8772 58.3994C77.3286 56.5015 75.1982 55.9619 73.2009 56.0671C73.1796 55.7927 72.924 55.5366 72.5352 55.6509C71.0545 56.0899 70.1758 57.2561 69.7816 58.5091C69.3342 59.9543 69.2171 61.189 70.3515 62.4238C70.4527 62.5335 70.5646 62.6387 70.6711 62.7393C70.4847 62.6707 70.2983 62.593 70.1278 62.5015C69.0733 61.9207 68.5993 60.8963 68.6099 59.8628C68.6152 59.5747 68.0826 59.5061 68.024 59.7942Z" fill="#FFF5F5"/>
<path d="M68.1572 63.4619C69.0892 64.2805 70.3462 64.779 71.6777 64.8018C72.1623 64.811 72.157 64.1707 71.6777 64.1616C70.4846 64.1433 69.3875 63.8735 68.4767 63.1875C68.2584 63.0229 67.9495 63.279 68.1572 63.4619Z" fill="#FFF5F5"/>
<path d="M73.2488 65.3735C73.5897 65.3781 73.9891 65.4009 74.2128 65.1494C74.2501 65.1082 74.2501 65.0168 74.2128 64.9756C73.9891 64.7241 73.5897 64.7424 73.2488 64.7515C72.8387 64.7561 72.4286 64.7973 72.0185 64.8247C71.667 64.8521 71.667 65.2683 72.0185 65.2957C72.4286 65.3277 72.8387 65.3643 73.2488 65.3735Z" fill="#FFF5F5"/>
<path d="M66.5594 70.2942C68.498 72.6036 70.6657 75.5351 74.0264 76.3994C74.133 76.4268 74.1915 76.2942 74.0957 76.2485C72.5618 75.4893 71.1983 74.7256 69.9574 73.6235C68.7697 72.5625 67.763 71.3506 66.7191 70.189C66.6499 70.1158 66.4954 70.2165 66.5594 70.2942Z" fill="#FFF5F5"/>
<path d="M69.3076 71.1265C69.707 72.407 70.9533 73.4177 72.1463 74.1951C73.5204 75.0823 75.3153 76.1616 77.0516 76.404C77.1635 76.4223 77.222 76.3034 77.1262 76.2485C75.8213 75.5214 74.33 75.064 73.0198 74.3186C71.5125 73.4634 70.2822 72.439 69.3661 71.1037C69.3448 71.0808 69.2969 71.0945 69.3076 71.1265Z" fill="#FFF5F5"/>
<path d="M71.8854 71.5335C73.8933 72.9466 76.2687 74.5061 78.724 75.2698C78.8358 75.3064 78.9317 75.1601 78.8412 75.096C76.796 73.6418 74.2554 72.7363 72.1676 71.2912C71.9706 71.154 71.683 71.3918 71.8854 71.5335Z" fill="#FFF5F5"/>
<path d="M79.1767 73.8842C78.4896 73.436 77.6535 73.1524 76.9185 72.7546C76.2048 72.3704 75.5284 71.9314 74.852 71.497C74.5644 71.3186 74.3034 71.7256 74.5803 71.9085C75.8586 72.7363 77.4085 73.9573 79.0436 74.1631C79.2513 74.1906 79.3418 73.9893 79.1767 73.8842Z" fill="#FFF5F5"/>
<path d="M91.2721 137.785C91.5012 138.123 91.7195 138.498 92.0338 138.54C92.4652 138.311 91.7781 137.831 91.8154 137.515C91.7142 136.139 93.1362 134.584 94.8352 134.858C95.2187 134.918 96.0602 135.343 96.2626 135.7C96.4064 135.956 96.0656 136.578 96.1934 136.665C96.8804 137.113 97.1041 135.956 97.3012 135.8C98.4356 135.078 99.2878 135.284 100.135 135.517C103.043 137.735 100.689 142.098 97.184 140.931C97.0296 140.364 96.22 140.209 95.8206 139.646C95.3039 140.062 95.7567 140.812 95.2613 141.48C93.9671 143.227 90.372 143.415 89.6051 141.005C89.5731 139.797 89.653 138.617 91.2721 137.785Z" fill="white"/>
<path d="M97.8445 130.761C97.8125 131.524 98.7712 132.279 99.5381 131.465C99.389 130.715 98.5475 130.473 97.8445 130.761ZM100.47 131.415C100.044 133.701 96.3905 132.38 96.8272 130.34C98.196 129.142 99.9482 129.823 100.47 131.415Z" fill="#FFF5F5"/>
<path d="M97.8444 130.761C98.5474 130.473 99.389 130.715 99.5381 131.465C98.7711 132.279 97.8124 131.524 97.8444 130.761Z" fill="white"/>
<path d="M91.8154 137.515C91.7781 137.831 92.4651 138.311 92.0337 138.54C91.7195 138.498 91.5011 138.123 91.2721 137.785C89.653 138.617 89.5731 139.797 89.6051 141.005C90.372 143.415 93.9671 143.227 95.2613 141.48C95.7566 140.812 95.3039 140.062 95.8205 139.646C96.22 140.209 97.0295 140.364 97.184 140.931C100.689 142.098 103.043 137.735 100.135 135.517C99.2878 135.284 98.4356 135.078 97.3012 135.8C97.1041 135.956 96.8804 137.113 96.1934 136.665C96.0655 136.578 96.4064 135.956 96.2626 135.7C96.0602 135.343 95.2187 134.918 94.8352 134.858C93.1362 134.584 91.7142 136.139 91.8154 137.515ZM96.9656 135.137C102.734 132.38 104.507 141.777 98.6753 142.047C97.903 142.084 97.1467 141.782 96.4117 141.215C95.0216 143.89 90.1164 144.777 88.7263 141.133C88.1883 139.729 89.1843 138.064 90.8354 136.966C90.846 134.405 95.224 133.175 96.9656 135.137Z" fill="#FFF5F5"/>
<path d="M88.0179 129.681C87.954 129.22 87.496 128.927 87.6557 128.62C88.5505 128.47 89.5252 129 90.4199 128.062C90.7235 125.762 87.1604 124.39 85.6212 126.535C85.5679 127.002 85.8183 127.537 85.781 128.008C85.5466 128.529 85.2324 127.596 84.8702 127.738C83.6239 129.27 86.2763 131.748 88.0179 129.681ZM87.432 124.591C90.4732 124.226 93.557 128.991 88.8434 129.476C88.7103 130.047 88.5612 130.5 87.97 130.848C85.3229 132.398 82.122 128.909 84.54 127.079C84.5081 125.895 85.9993 124.761 87.432 124.591Z" fill="#FFF5F5"/>
<path d="M77.6694 105.046C77.9251 105.037 78.021 105.553 78.3086 105.453C78.708 104.89 78.1967 104.122 78.4364 103.523C79.1661 102.773 80.2739 102.544 81.174 102.567C81.4456 102.846 81.7439 103.029 82.0261 103.276C85.5679 100.569 87.3309 105.558 84.6892 106.811C83.6879 107.282 83.0541 106.678 82.2445 106.07C81.8238 107.309 79.949 108.938 78.3299 108.133C77.1155 107.534 77.0037 105.947 77.6694 105.046Z" fill="white"/>
<path d="M87.6558 128.62C87.496 128.927 87.954 129.22 88.0179 129.681C86.2763 131.748 83.624 129.27 84.8703 127.738C85.2324 127.596 85.5467 128.529 85.781 128.008C85.8183 127.537 85.568 127.002 85.6212 126.535C87.1604 124.39 90.7236 125.762 90.42 128.063C89.5252 129 88.5505 128.47 87.6558 128.62Z" fill="white"/>
<path d="M78.3086 105.453C78.021 105.553 77.9251 105.037 77.6695 105.046C77.0037 105.947 77.1156 107.534 78.3299 108.133C79.949 108.937 81.8238 107.309 82.2445 106.07C83.0541 106.678 83.6879 107.282 84.6892 106.811C87.3309 105.558 85.568 100.569 82.0262 103.276C81.7439 103.029 81.4456 102.846 81.174 102.567C80.2739 102.544 79.1661 102.773 78.4364 103.523C78.1968 104.122 78.708 104.89 78.3086 105.453ZM86.3988 102.947C88.0393 105.27 85.3816 109.084 82.5321 107.373C81.3551 109.203 78.3192 109.738 76.9664 108.091C76.0291 106.948 76.0237 105.247 77.3712 104.264C76.8706 102.444 80.7692 101.017 82.1274 102.192C83.8743 101.163 85.4721 101.634 86.3988 102.947Z" fill="#FFF5F5"/>
<path d="M72.6417 121.029C72.6523 123.188 77.1422 121.742 74.607 119.835C73.6803 119.561 72.6364 120.366 72.6417 121.029ZM75.5071 119.387C78.2446 121.733 74.085 124.079 72.4286 122.483C70.5645 120.695 73.3607 117.768 75.5071 119.387Z" fill="#FFF5F5"/>
<path d="M74.607 119.835C77.1422 121.742 72.6523 123.187 72.6417 121.029C72.6364 120.366 73.6803 119.561 74.607 119.835Z" fill="white"/>
<path d="M72.2265 113.849C72.2158 113.872 72.1997 113.895 72.189 113.918C72.1997 113.895 72.2158 113.872 72.2265 113.849Z" fill="white"/>
<path d="M72.1521 113.982C72.1307 114.014 72.1092 114.046 72.0878 114.078C72.1092 114.046 72.1307 114.014 72.1521 113.982Z" fill="white"/>
<path d="M72.0668 114.11C72.0507 114.133 72.0346 114.155 72.0186 114.174C72.0346 114.155 72.0507 114.133 72.0668 114.11Z" fill="white"/>
<path d="M71.9709 114.238C71.9549 114.261 71.9388 114.279 71.9227 114.302C71.9388 114.279 71.9549 114.261 71.9709 114.238Z" fill="white"/>
<path d="M71.923 114.302C71.9069 114.325 71.8908 114.343 71.8694 114.366C71.8908 114.343 71.9069 114.325 71.923 114.302Z" fill="white"/>
<path d="M71.8699 114.366C71.8485 114.393 71.8217 114.425 71.7949 114.457C71.8217 114.425 71.8485 114.393 71.8699 114.366Z" fill="white"/>
<path d="M71.7953 114.457C71.7738 114.476 71.7577 114.494 71.7363 114.517C71.7577 114.494 71.7738 114.476 71.7953 114.457Z" fill="white"/>
<path d="M71.6838 114.576C71.6462 114.613 71.6033 114.654 71.5658 114.691C71.6033 114.654 71.6409 114.613 71.6838 114.576Z" fill="white"/>
<path d="M71.5667 114.691C71.5238 114.732 71.4808 114.768 71.4433 114.805C71.4808 114.768 71.5238 114.732 71.5667 114.691Z" fill="white"/>
<path d="M71.4437 114.805C71.4223 114.823 71.4008 114.841 71.3794 114.86C71.4008 114.841 71.4223 114.823 71.4437 114.805Z" fill="white"/>
<path d="M64.6686 108.873C64.6846 109.239 64.7538 110.191 65.2438 110.241C65.6593 109.596 65.0308 108.713 65.3078 108.037C66.8044 106.345 69.5899 106.523 70.3302 108.828C70.4314 109.742 69.004 110.319 68.7803 111.16C69.5632 111.265 70.3462 110.78 71.2196 111.183C72.6417 111.837 72.7535 112.902 72.2263 113.849C72.2156 113.872 72.1996 113.895 72.189 113.918C72.1783 113.941 72.1623 113.959 72.1517 113.982C72.1304 114.014 72.1091 114.046 72.0878 114.078C72.0771 114.091 72.0718 114.101 72.0665 114.11C72.0505 114.133 72.0345 114.155 72.0185 114.174C72.0026 114.197 71.9866 114.219 71.9706 114.238C71.9546 114.261 71.9387 114.279 71.9227 114.302C71.9067 114.325 71.8907 114.343 71.8694 114.366C71.8481 114.393 71.8215 114.425 71.7949 114.457C71.7735 114.476 71.7576 114.494 71.7363 114.517C71.7203 114.535 71.699 114.558 71.683 114.576C71.6404 114.613 71.6031 114.654 71.5658 114.691C71.5232 114.732 71.4806 114.768 71.4433 114.805C71.422 114.823 71.4007 114.841 71.3794 114.86C70.2876 115.788 68.6578 116.268 67.6352 115.409C67.6192 115.39 67.5979 115.377 67.582 115.358C67.5713 115.354 67.5607 115.344 67.5553 115.335C67.534 115.317 67.5181 115.303 67.5021 115.285C67.4435 115.221 67.3849 115.157 67.3263 115.084C67.3103 115.061 67.2944 115.043 67.2837 115.02C67.2518 114.979 67.2198 114.933 67.1932 114.887C67.1772 114.86 67.1665 114.837 67.1506 114.814C67.1452 114.8 67.1346 114.791 67.1293 114.777C67.1186 114.75 67.1026 114.727 67.092 114.7C66.7671 114.059 67.4648 113.886 66.8363 113.273C65.9096 114.636 63.417 115.034 62.2985 113.895C60.7274 112.294 61.979 109.674 64.6686 108.873Z" fill="white"/>
<path d="M62.2985 113.895C63.417 115.034 65.9096 114.636 66.8363 113.273C67.4648 113.886 66.7671 114.059 67.0919 114.7C67.1026 114.727 67.1186 114.75 67.1292 114.777C67.1345 114.791 67.1452 114.8 67.1505 114.814C67.1665 114.837 67.1772 114.86 67.1931 114.887C67.2198 114.933 67.2517 114.979 67.2837 115.02C67.2943 115.043 67.3103 115.061 67.3263 115.084C67.3849 115.157 67.4435 115.221 67.502 115.285C67.518 115.303 67.534 115.317 67.5553 115.335C67.5606 115.345 67.5713 115.354 67.5819 115.358C67.5979 115.377 67.6192 115.39 67.6352 115.409C68.6578 116.268 70.2876 115.788 71.3794 114.86C71.4007 114.841 71.422 114.823 71.4433 114.805C71.4806 114.768 71.5232 114.732 71.5658 114.691C71.6031 114.654 71.6404 114.613 71.683 114.576C71.699 114.558 71.7203 114.535 71.7362 114.517C71.7575 114.494 71.7735 114.476 71.7895 114.457C71.8214 114.425 71.8481 114.393 71.8694 114.366C71.8907 114.343 71.9067 114.325 71.9226 114.302C71.9386 114.279 71.9546 114.261 71.9706 114.238C71.9866 114.22 72.0025 114.197 72.0185 114.174C72.0345 114.155 72.0505 114.133 72.0664 114.11C72.0718 114.101 72.0771 114.091 72.0878 114.078C72.1091 114.046 72.1304 114.014 72.1517 113.982C72.1623 113.959 72.1783 113.941 72.1889 113.918C72.1996 113.895 72.2156 113.872 72.2262 113.849C72.7535 112.902 72.6417 111.837 71.2143 111.183C70.3461 110.78 69.5632 111.265 68.7803 111.16C69.004 110.319 70.4314 109.742 70.3302 108.832C69.5845 106.523 66.8043 106.345 65.3077 108.037C65.0308 108.713 65.6592 109.596 65.2438 110.241C64.7538 110.191 64.6846 109.239 64.6686 108.873C61.979 109.674 60.7273 112.294 62.2985 113.895ZM72.631 111.302C75.5869 114.48 68.743 119.145 66.2291 115.029C64.5408 115.633 63.1347 115.326 61.8405 114.64C60.0243 111.883 60.7327 109.692 64.2851 108.133C65.4835 105.553 69.9201 105.183 71.193 108.498C71.1823 109.13 71.1397 109.752 70.7243 110.291C71.438 110.524 72.1623 110.799 72.631 111.302Z" fill="#FFF5F5"/>
<path d="M53.3668 120.649C54.0112 120.791 54.4267 121.678 55.0924 121.752C55.4333 121.029 55.657 119.968 56.589 119.346C56.7115 119.264 56.85 119.181 57.0045 119.099C57.0204 119.09 57.0417 119.076 57.063 119.067C57.079 119.058 57.1003 119.049 57.1216 119.035C57.1429 119.026 57.1589 119.017 57.1802 119.008C57.2122 118.994 57.2441 118.976 57.2761 118.962C57.6755 118.774 58.1282 118.619 58.4957 118.596C58.7567 118.578 59.0283 118.614 59.2893 118.697C59.4065 118.733 59.5237 118.779 59.6408 118.829C59.6675 118.843 59.6888 118.852 59.7154 118.866C59.79 118.902 59.8645 118.939 59.9391 118.98C59.9604 118.994 59.987 119.012 60.0137 119.026C60.0296 119.035 60.0456 119.044 60.0616 119.058C60.0936 119.076 60.1255 119.095 60.1575 119.117C60.1788 119.131 60.2054 119.149 60.2267 119.163C60.2853 119.204 60.3439 119.25 60.4025 119.291C60.4238 119.309 60.4504 119.328 60.4717 119.346C60.525 119.387 60.5729 119.428 60.6208 119.474C60.6368 119.488 60.6581 119.502 60.6741 119.515C60.738 119.575 60.8019 119.639 60.8658 119.698C60.8871 119.721 60.9084 119.744 60.9244 119.762C61.6488 120.517 62.1334 121.505 62.0216 122.319C61.9417 122.867 61.4144 123.595 61.0682 123.933C60.7593 124.239 59.987 124.345 60.0722 124.953C61.3398 125.186 62.5222 124.989 63.4276 125.959C66.2771 129.018 62.0322 134.172 58.1975 133.345C57.3613 133.166 56.147 132.343 55.6943 131.287C55.412 130.614 56.0777 130.134 55.0764 129.32C54.2402 130.422 53.4041 131.63 51.6465 131.556C47.4815 131.392 46.6933 124.436 51.9873 123.933C52.0832 123.453 52.0353 122.941 51.6252 122.351C51.721 121.614 52.1152 120.572 53.3668 120.649Z" fill="white"/>
<path d="M60.8658 119.698C60.8873 119.721 60.9087 119.744 60.9248 119.762C60.9087 119.744 60.8873 119.721 60.8658 119.698Z" fill="white"/>
<path d="M60.6208 119.474C60.6369 119.488 60.6584 119.502 60.6745 119.515C60.6584 119.502 60.6369 119.488 60.6208 119.474Z" fill="white"/>
<path d="M51.9873 123.933C46.6933 124.436 47.4815 131.392 51.6465 131.556C53.4041 131.63 54.2403 130.422 55.0764 129.32C56.0777 130.134 55.412 130.614 55.6943 131.287C56.147 132.343 57.3613 133.166 58.1975 133.344C62.0322 134.172 66.2771 129.018 63.4277 125.959C62.5222 124.989 61.3399 125.186 60.0723 124.953C59.987 124.344 60.7593 124.239 61.0682 123.933C61.4144 123.594 61.9417 122.867 62.0216 122.319C62.1334 121.505 61.6488 120.517 60.9244 119.762C60.9084 119.744 60.8871 119.721 60.8658 119.698C60.8019 119.639 60.738 119.575 60.6741 119.515C60.6581 119.502 60.6368 119.488 60.6208 119.474C60.5729 119.428 60.525 119.387 60.4717 119.346C60.4504 119.328 60.4238 119.309 60.4025 119.291C60.3439 119.25 60.2853 119.204 60.2267 119.163C60.2054 119.149 60.1788 119.131 60.1575 119.117C60.1255 119.094 60.0936 119.076 60.0616 119.058C60.0456 119.044 60.0296 119.035 60.0137 119.026C59.987 119.012 59.9604 118.994 59.9391 118.98C59.8645 118.939 59.79 118.902 59.7154 118.866C59.6888 118.852 59.6675 118.843 59.6408 118.829C59.5237 118.779 59.4065 118.733 59.2893 118.697C59.0284 118.614 58.7567 118.578 58.4958 118.596C58.1283 118.619 57.6755 118.774 57.2761 118.962C57.2441 118.976 57.2122 118.994 57.1802 119.008C57.1589 119.017 57.1429 119.026 57.1216 119.035C57.1003 119.049 57.079 119.058 57.0631 119.067C57.0417 119.076 57.0204 119.09 57.0045 119.099C56.85 119.181 56.7115 119.264 56.589 119.346C55.657 119.968 55.4333 121.029 55.0924 121.752C54.4267 121.678 54.0112 120.791 53.3668 120.649C52.1152 120.572 51.721 121.614 51.6252 122.351C52.0353 122.941 52.0832 123.453 51.9873 123.933ZM61.9417 124.322C64.1946 124.825 65.5208 127.358 65.3077 129.055C64.8018 133.07 57.1536 136.994 54.7622 131.341C54.7409 131.268 54.8048 131.218 54.7462 131.14C49.0048 135.969 43.4604 125.062 50.9541 123.311C49.6066 121.505 52.5945 118.573 54.5705 120.462C55.0605 119.886 55.1883 119.255 55.7528 118.834C60.051 115.601 64.9775 121.605 61.9417 124.322Z" fill="#FFF5F5"/>
<path d="M48.9888 110.73C49.5427 112.93 53.1005 110.451 50.6931 109.152C49.6066 109.152 48.8024 110.003 48.9888 110.73ZM49.0261 108.846C51.3429 107.117 53.4201 110.273 51.8808 111.764C50.6186 112.98 48.3976 112.523 48.0195 110.904C47.8597 110.227 48.1526 109.5 49.0261 108.846Z" fill="#FFF5F5"/>
<path d="M50.6931 109.152C53.1005 110.451 49.5427 112.93 48.9888 110.73C48.8024 110.003 49.6066 109.152 50.6931 109.152Z" fill="white"/>
</svg>
