<svg width="65" height="63" viewBox="0 0 65 63" fill="none" xmlns="http://www.w3.org/2000/svg">
<path d="M32.5 0C14.6378 0 0 14.3104 0 31.623C0 48.8352 14.5044 63 32.5 63C50.4733 63 65 48.8563 65 31.623C65 14.3104 50.3622 0 32.5 0ZM38.2129 58.7549C36.385 59.124 34.4425 59.3086 32.5 59.3086C30.5575 59.3086 28.615 59.124 26.7871 58.7549V50.1171C26.7871 48.0498 27.3584 47.3115 28.1201 46.3147C28.5079 45.8849 28.742 45.4995 30.4811 42.9559L27.5488 42.5127C20.0075 41.4423 17.037 37.6398 15.8562 34.6867C14.3328 30.7372 15.1327 25.7903 17.8751 22.6531C18.2941 22.173 18.6368 21.3606 18.3323 20.5118C17.7605 18.8137 17.8369 16.1191 18.2178 15.0853C20.2371 15.365 22.3135 16.7671 24.0452 17.7803C24.8431 18.2316 25.2617 18.1124 25.6445 18.1494C27.0361 17.8687 29.2067 17.1896 32.5382 17.1896C34.5947 17.1896 36.7658 17.4847 38.8987 18.0754C39.2801 18.0667 39.893 18.3811 40.9553 17.7803C42.7654 16.7113 44.7713 15.3573 46.7822 15.0853C47.1631 16.1191 47.2395 18.8137 46.6682 20.5118C46.3632 21.3606 46.7059 22.173 47.1254 22.6531C49.8673 25.7908 50.6672 30.7372 49.1438 34.6867C47.963 37.6398 44.9925 41.4423 37.4512 42.5127L34.5189 42.9559C36.3165 45.585 36.506 45.9003 36.8804 46.3147C37.6416 47.3115 38.2129 48.0498 38.2129 50.1171V58.7549ZM42.0215 57.6845V50.1171C42.0215 48.0128 41.5643 46.6103 40.9548 45.5764C46.744 44.0633 50.8576 40.7405 52.6855 35.9787C54.628 30.9588 53.7523 24.9785 50.5145 20.8439C51.0862 18.371 51.0862 14.421 49.715 12.5753C49.1056 11.7635 48.2675 11.3203 47.2013 11.3203C47.1631 11.3203 47.1631 11.3203 47.1631 11.3203C44.2099 11.4751 41.8856 12.9166 39.3937 14.384C37.1085 13.7933 34.7852 13.4981 32.4618 13.4981C30.1008 13.4981 27.7393 13.8303 25.645 14.384C23.0217 12.8507 20.7196 11.4712 17.6847 11.3203C16.7325 11.3203 15.8944 11.7635 15.285 12.5753C13.9143 14.421 13.9143 18.371 14.4855 20.8439C11.2477 24.9785 10.372 30.9953 12.3145 35.9787C14.1424 40.7405 18.256 44.0633 24.0452 45.5764C23.5726 46.3776 23.1987 47.4115 23.0514 48.8107C21.8821 49.2014 20.8679 49.3288 19.9247 49.0601C18.9299 48.7751 18.1548 48.1315 17.4813 47.0337C15.9688 44.5708 13.3926 42.5603 10.4593 42.8218L10.794 46.4987C12.1523 46.3781 13.5041 47.771 14.2064 48.9193C15.3648 50.8102 16.9254 52.0503 18.8461 52.6001C20.2718 53.0072 21.5751 52.9976 22.9785 52.7073V57.6845C11.8954 53.919 3.80859 43.6571 3.80859 31.623C3.80859 16.3407 16.7325 3.69141 32.5 3.69141C48.2675 3.69141 61.1914 16.3407 61.1914 31.623C61.1914 43.6571 53.1046 53.919 42.0215 57.6845Z" fill="#FFF5F5"/>
</svg>
