<svg width="65" height="62" viewBox="0 0 65 62" fill="none" xmlns="http://www.w3.org/2000/svg">
<path d="M20.3135 51.2227H11.4268V23.8555H20.3135V51.2227ZM21.2002 15.1362C21.2002 12.396 18.8694 10.1719 15.9981 10.1719C13.1158 10.1719 10.791 12.396 10.791 15.1362C10.791 17.8774 13.1158 20.1016 15.9981 20.1016C18.8694 20.1016 21.2002 17.8774 21.2002 15.1362ZM53.5742 36.1664C53.5742 28.8198 51.9471 23.3711 42.9498 23.3711C38.6265 23.3711 35.7244 25.4335 34.5397 27.5782H34.5312V23.8555H25.8984V51.2227H34.5312V37.6346C34.5312 34.0761 35.4809 30.6287 40.1053 30.6287C44.6667 30.6287 44.8145 34.6981 44.8145 37.8607V51.2227H53.5742V36.1664ZM65 54.7344V7.26562C65 3.25912 61.5832 0 57.3828 0H7.61719C3.41682 0 0 3.25912 0 7.26562V54.7344C0 58.7409 3.41682 62 7.61719 62H57.3828C61.5832 62 65 58.7409 65 54.7344ZM57.3828 4.84375C58.7828 4.84375 59.9219 5.93028 59.9219 7.26562V54.7344C59.9219 56.0697 58.7828 57.1562 57.3828 57.1562H7.61719C6.21723 57.1562 5.07812 56.0697 5.07812 54.7344V7.26562C5.07812 5.93028 6.21723 4.84375 7.61719 4.84375H57.3828Z" fill="#FFF5F5"/>
</svg>
