<svg width="66" height="60" viewBox="0 0 66 60" fill="none" xmlns="http://www.w3.org/2000/svg">
<g clip-path="url(#clip0)">
<path d="M43.8859 28.827L30.1812 19.7704C29.6782 19.439 29.0106 19.3891 28.4593 19.6467C27.9037 19.9022 27.5566 20.4213 27.5566 20.9824V39.0896C27.5566 39.6566 27.9037 40.1737 28.4593 40.4293C28.6943 40.5371 28.9513 40.591 29.2104 40.591C29.5487 40.591 29.8913 40.4932 30.1812 40.2995L43.8859 31.2509C44.3185 30.9614 44.5711 30.5142 44.5711 30.039C44.5733 29.5558 44.3142 29.1106 43.8859 28.827Z" fill="#FFF5F5"/>
<path d="M33.0011 0.00466919C14.7721 0.00466919 0 13.4338 0 30.0057C0 46.5715 14.7721 59.9967 33.0011 59.9967C51.2257 59.9967 66 46.5695 66 30.0057C66.0022 13.4338 51.2257 0.00466919 33.0011 0.00466919ZM33.0011 54.9912C17.8205 54.9912 5.51263 43.8082 5.51263 30.0057C5.51263 16.2091 17.8205 5.01216 33.0011 5.01216C48.1795 5.01216 60.4852 16.2071 60.4852 30.0057C60.4874 43.8082 48.1795 54.9912 33.0011 54.9912Z" fill="#FFF5F5"/>
</g>
<defs>
<clipPath id="clip0">
<rect width="66" height="60" fill="white"/>
</clipPath>
</defs>
</svg>
