<svg width="77" height="61" viewBox="0 0 77 61" fill="none" xmlns="http://www.w3.org/2000/svg">
<path d="M38.4972 61C38.4907 61 38.4837 61 38.4766 61C36.1532 60.9826 15.6132 60.7772 9.79375 59.0518C5.72674 57.8533 2.51625 54.3376 1.42005 49.8785C-0.10266 43.6115 -0.00572817 31.5459 0.00484617 30.5824C-0.0051407 29.6235 -0.103247 17.458 1.41535 11.1396C1.41711 11.1338 1.41828 11.1273 1.42005 11.1215C2.50392 6.71323 5.78666 3.08871 9.78376 1.88697C9.79375 1.88375 9.80432 1.88117 9.81431 1.87795C15.5679 0.220254 36.1485 0.0173885 38.4766 0H38.5184C40.8476 0.0173885 61.4423 0.22283 67.2083 1.95073C71.2647 3.14602 74.4729 6.6572 75.572 11.1106C77.1517 17.4335 77.0054 29.6254 76.9896 30.6546C77.0007 31.6682 77.093 43.6257 75.5791 49.9242C75.5779 49.9306 75.5761 49.9364 75.575 49.9422C74.4782 54.4014 71.2683 57.9171 67.1965 59.1169C67.1913 59.1188 67.1854 59.1201 67.1801 59.122C61.4271 60.7791 40.8459 60.982 38.5184 61C38.5113 61 38.5043 61 38.4972 61ZM7.23006 12.8307C5.89299 18.4079 6.0193 30.4182 6.02047 30.5393V30.6262C5.98052 33.9571 6.12093 43.6032 7.23064 48.1718C7.76876 50.3596 9.35198 52.0926 11.3599 52.6845C15.6537 53.9577 32.3829 54.3582 38.4972 54.4053C44.6274 54.3582 61.3813 53.9686 65.6433 52.7463C67.6448 52.1525 69.2227 50.4252 69.7644 48.2349C70.8752 43.5993 71.0145 34.0002 70.9739 30.6906C70.9739 30.6559 70.9739 30.6211 70.9745 30.5863C71.0297 27.2155 70.9211 17.4567 69.7696 12.8514C69.7685 12.8469 69.7673 12.8423 69.7667 12.8378C69.2262 10.6404 67.6424 8.9074 65.6345 8.31555C61.3824 7.04104 44.6262 6.64175 38.4972 6.59473C32.3711 6.64175 15.6337 7.03073 11.3588 8.25179C9.38899 8.85073 7.76994 10.6456 7.23006 12.8307ZM72.6705 49.0844H72.6723H72.6705ZM30.8302 43.8537V17.1457L51.8849 30.5L30.8302 43.8537Z" fill="#FFF5F5"/>
</svg>
